%TF.GenerationSoftware,KiCad,Pcbnew,(6.0.8)*%
%TF.CreationDate,2022-11-05T16:02:49+08:00*%
%TF.ProjectId,pico_apple1,7069636f-5f61-4707-906c-65312e6b6963,rev?*%
%TF.SameCoordinates,Original*%
%TF.FileFunction,Copper,L1,Top*%
%TF.FilePolarity,Positive*%
%FSLAX46Y46*%
G04 Gerber Fmt 4.6, Leading zero omitted, Abs format (unit mm)*
G04 Created by KiCad (PCBNEW (6.0.8)) date 2022-11-05 16:02:49*
%MOMM*%
%LPD*%
G01*
G04 APERTURE LIST*
%TA.AperFunction,ComponentPad*%
%ADD10C,1.700000*%
%TD*%
%TA.AperFunction,ComponentPad*%
%ADD11O,1.600000X1.600000*%
%TD*%
%TA.AperFunction,ComponentPad*%
%ADD12R,1.600000X1.600000*%
%TD*%
%TA.AperFunction,ComponentPad*%
%ADD13C,2.000000*%
%TD*%
%TA.AperFunction,ComponentPad*%
%ADD14C,1.600000*%
%TD*%
%TA.AperFunction,ViaPad*%
%ADD15C,0.500000*%
%TD*%
%TA.AperFunction,ViaPad*%
%ADD16C,1.000000*%
%TD*%
%TA.AperFunction,Conductor*%
%ADD17C,0.250000*%
%TD*%
%TA.AperFunction,Conductor*%
%ADD18C,1.000000*%
%TD*%
G04 APERTURE END LIST*
D10*
%TO.P,U4,1,GP0*%
%TO.N,Net-(U2-Pad4)*%
X77724000Y-40949000D03*
%TO.P,U4,2,GP1*%
%TO.N,Net-(U2-Pad7)*%
X77724000Y-43489000D03*
%TO.P,U4,3,GND*%
%TO.N,GND*%
X77724000Y-46029000D03*
%TO.P,U4,4,GP2*%
%TO.N,Net-(U2-Pad12)*%
X77724000Y-48569000D03*
%TO.P,U4,5,GP3*%
%TO.N,Net-(U2-Pad9)*%
X77724000Y-51109000D03*
%TO.P,U4,6,GP4*%
%TO.N,Net-(U3-Pad4)*%
X77724000Y-53649000D03*
%TO.P,U4,7,GP5*%
%TO.N,Net-(U3-Pad7)*%
X77724000Y-56189000D03*
%TO.P,U4,8,GND*%
%TO.N,GND*%
X77724000Y-58729000D03*
%TO.P,U4,9,GP6*%
%TO.N,Net-(U3-Pad12)*%
X77724000Y-61269000D03*
%TO.P,U4,10,GP7*%
%TO.N,Net-(U3-Pad9)*%
X77724000Y-63809000D03*
%TO.P,U4,11,GP8*%
%TO.N,Net-(U1-Pad33)*%
X77724000Y-66349000D03*
%TO.P,U4,12,GP9*%
%TO.N,Net-(U1-Pad32)*%
X77724000Y-68889000D03*
%TO.P,U4,13,GND*%
%TO.N,GND*%
X77724000Y-71429000D03*
%TO.P,U4,14,GP10*%
%TO.N,Net-(U1-Pad31)*%
X77724000Y-73969000D03*
%TO.P,U4,15,GP11*%
%TO.N,Net-(U1-Pad30)*%
X77724000Y-76509000D03*
%TO.P,U4,16,GP12*%
%TO.N,Net-(U1-Pad29)*%
X77724000Y-79049000D03*
%TO.P,U4,17,GP13*%
%TO.N,Net-(U1-Pad28)*%
X77724000Y-81589000D03*
%TO.P,U4,18,GND*%
%TO.N,GND*%
X77724000Y-84129000D03*
%TO.P,U4,19,GP14*%
%TO.N,Net-(U1-Pad27)*%
X77724000Y-86669000D03*
%TO.P,U4,20,GP15*%
%TO.N,Net-(U1-Pad26)*%
X77724000Y-89209000D03*
%TO.P,U4,21,GP16*%
%TO.N,/R{slash}W*%
X95504000Y-89209000D03*
%TO.P,U4,22,GP17*%
%TO.N,/CLK*%
X95504000Y-86669000D03*
%TO.P,U4,23,GND*%
%TO.N,GND*%
X95504000Y-84129000D03*
%TO.P,U4,24,GP18*%
%TO.N,/~{IRQ}*%
X95504000Y-81589000D03*
%TO.P,U4,25,GP19*%
%TO.N,/~{NMI}*%
X95504000Y-79049000D03*
%TO.P,U4,26,GP20*%
%TO.N,/~{RST}*%
X95504000Y-76509000D03*
%TO.P,U4,27,GP21*%
%TO.N,/AS*%
X95504000Y-73969000D03*
%TO.P,U4,28,GND*%
%TO.N,GND*%
X95504000Y-71429000D03*
%TO.P,U4,29,GP22*%
%TO.N,Net-(U4-Pad29)*%
X95504000Y-68889000D03*
%TO.P,U4,30,RUN*%
%TO.N,unconnected-(U4-Pad30)*%
X95504000Y-66349000D03*
%TO.P,U4,31,GP26*%
%TO.N,unconnected-(U4-Pad31)*%
X95504000Y-63809000D03*
%TO.P,U4,32,GP27*%
%TO.N,unconnected-(U4-Pad32)*%
X95504000Y-61269000D03*
%TO.P,U4,33,GND*%
%TO.N,GND*%
X95504000Y-58729000D03*
%TO.P,U4,34,GP28*%
%TO.N,unconnected-(U4-Pad34)*%
X95504000Y-56189000D03*
%TO.P,U4,35,ADC_VREF*%
%TO.N,unconnected-(U4-Pad35)*%
X95504000Y-53649000D03*
%TO.P,U4,36,3V3(OUT)*%
%TO.N,+3V3*%
X95504000Y-51109000D03*
%TO.P,U4,37,3V3_EN*%
%TO.N,unconnected-(U4-Pad37)*%
X95504000Y-48569000D03*
%TO.P,U4,38,GND*%
%TO.N,GND*%
X95504000Y-46029000D03*
%TO.P,U4,39,VSYS*%
%TO.N,unconnected-(U4-Pad39)*%
X95504000Y-43489000D03*
%TO.P,U4,40,VBUS*%
%TO.N,unconnected-(U4-Pad40)*%
X95504000Y-40949000D03*
%TD*%
D11*
%TO.P,U3,16,VCC*%
%TO.N,+3V3*%
X66685000Y-61991000D03*
%TO.P,U3,15,E*%
%TO.N,GND*%
X66685000Y-64531000D03*
%TO.P,U3,14,I0d*%
%TO.N,Net-(U3-Pad14)*%
X66685000Y-67071000D03*
%TO.P,U3,13,I1d*%
%TO.N,Net-(U1-Pad24)*%
X66685000Y-69611000D03*
%TO.P,U3,12,Zd*%
%TO.N,Net-(U3-Pad12)*%
X66685000Y-72151000D03*
%TO.P,U3,11,I0c*%
%TO.N,Net-(U3-Pad11)*%
X66685000Y-74691000D03*
%TO.P,U3,10,I1c*%
%TO.N,Net-(U3-Pad10)*%
X66685000Y-77231000D03*
%TO.P,U3,9,Zc*%
%TO.N,Net-(U3-Pad9)*%
X66685000Y-79771000D03*
%TO.P,U3,8,GND*%
%TO.N,GND*%
X59065000Y-79771000D03*
%TO.P,U3,7,Zb*%
%TO.N,Net-(U3-Pad7)*%
X59065000Y-77231000D03*
%TO.P,U3,6,I1b*%
%TO.N,Net-(U1-Pad23)*%
X59065000Y-74691000D03*
%TO.P,U3,5,I0b*%
%TO.N,Net-(U1-Pad14)*%
X59065000Y-72151000D03*
%TO.P,U3,4,Za*%
%TO.N,Net-(U3-Pad4)*%
X59065000Y-69611000D03*
%TO.P,U3,3,I1a*%
%TO.N,Net-(U1-Pad22)*%
X59065000Y-67071000D03*
%TO.P,U3,2,I0a*%
%TO.N,Net-(U1-Pad13)*%
X59065000Y-64531000D03*
D12*
%TO.P,U3,1,S*%
%TO.N,/AS*%
X59065000Y-61991000D03*
%TD*%
%TO.P,U2,1,S*%
%TO.N,/AS*%
X59065000Y-40899000D03*
D11*
%TO.P,U2,2,I0a*%
%TO.N,Net-(U1-Pad9)*%
X59065000Y-43439000D03*
%TO.P,U2,3,I1a*%
%TO.N,Net-(U1-Pad17)*%
X59065000Y-45979000D03*
%TO.P,U2,4,Za*%
%TO.N,Net-(U2-Pad4)*%
X59065000Y-48519000D03*
%TO.P,U2,5,I0b*%
%TO.N,Net-(U1-Pad10)*%
X59065000Y-51059000D03*
%TO.P,U2,6,I1b*%
%TO.N,Net-(U1-Pad18)*%
X59065000Y-53599000D03*
%TO.P,U2,7,Zb*%
%TO.N,Net-(U2-Pad7)*%
X59065000Y-56139000D03*
%TO.P,U2,8,GND*%
%TO.N,GND*%
X59065000Y-58679000D03*
%TO.P,U2,9,Zc*%
%TO.N,Net-(U2-Pad9)*%
X66685000Y-58679000D03*
%TO.P,U2,10,I1c*%
%TO.N,Net-(U2-Pad10)*%
X66685000Y-56139000D03*
%TO.P,U2,11,I0c*%
%TO.N,Net-(U2-Pad11)*%
X66685000Y-53599000D03*
%TO.P,U2,12,Zd*%
%TO.N,Net-(U2-Pad12)*%
X66685000Y-51059000D03*
%TO.P,U2,13,I1d*%
%TO.N,Net-(U2-Pad13)*%
X66685000Y-48519000D03*
%TO.P,U2,14,I0d*%
%TO.N,Net-(U2-Pad14)*%
X66685000Y-45979000D03*
%TO.P,U2,15,E*%
%TO.N,GND*%
X66685000Y-43439000D03*
%TO.P,U2,16,VCC*%
%TO.N,+3V3*%
X66685000Y-40899000D03*
%TD*%
D12*
%TO.P,U1,1,VPB*%
%TO.N,unconnected-(U1-Pad1)*%
X31872000Y-40899000D03*
D11*
%TO.P,U1,2,RDY*%
%TO.N,Net-(R1-Pad1)*%
X31872000Y-43439000D03*
%TO.P,U1,3,PHI1O*%
%TO.N,unconnected-(U1-Pad3)*%
X31872000Y-45979000D03*
%TO.P,U1,4,IRQB*%
%TO.N,/~{IRQ}*%
X31872000Y-48519000D03*
%TO.P,U1,5,MLB*%
%TO.N,unconnected-(U1-Pad5)*%
X31872000Y-51059000D03*
%TO.P,U1,6,NMIB*%
%TO.N,/~{NMI}*%
X31872000Y-53599000D03*
%TO.P,U1,7,SYNC*%
%TO.N,unconnected-(U1-Pad7)*%
X31872000Y-56139000D03*
%TO.P,U1,8,VDD*%
%TO.N,+3V3*%
X31872000Y-58679000D03*
%TO.P,U1,9,A0*%
%TO.N,Net-(U1-Pad9)*%
X31872000Y-61219000D03*
%TO.P,U1,10,A1*%
%TO.N,Net-(U1-Pad10)*%
X31872000Y-63759000D03*
%TO.P,U1,11,A2*%
%TO.N,Net-(U2-Pad14)*%
X31872000Y-66299000D03*
%TO.P,U1,12,A3*%
%TO.N,Net-(U2-Pad11)*%
X31872000Y-68839000D03*
%TO.P,U1,13,A4*%
%TO.N,Net-(U1-Pad13)*%
X31872000Y-71379000D03*
%TO.P,U1,14,A5*%
%TO.N,Net-(U1-Pad14)*%
X31872000Y-73919000D03*
%TO.P,U1,15,A6*%
%TO.N,Net-(U3-Pad14)*%
X31872000Y-76459000D03*
%TO.P,U1,16,A7*%
%TO.N,Net-(U3-Pad11)*%
X31872000Y-78999000D03*
%TO.P,U1,17,A8*%
%TO.N,Net-(U1-Pad17)*%
X31872000Y-81539000D03*
%TO.P,U1,18,A9*%
%TO.N,Net-(U1-Pad18)*%
X31872000Y-84079000D03*
%TO.P,U1,19,A10*%
%TO.N,Net-(U2-Pad13)*%
X31872000Y-86619000D03*
%TO.P,U1,20,A11*%
%TO.N,Net-(U2-Pad10)*%
X31872000Y-89159000D03*
%TO.P,U1,21,VSS*%
%TO.N,GND*%
X47112000Y-89159000D03*
%TO.P,U1,22,A12*%
%TO.N,Net-(U1-Pad22)*%
X47112000Y-86619000D03*
%TO.P,U1,23,A13*%
%TO.N,Net-(U1-Pad23)*%
X47112000Y-84079000D03*
%TO.P,U1,24,A14*%
%TO.N,Net-(U1-Pad24)*%
X47112000Y-81539000D03*
%TO.P,U1,25,A15*%
%TO.N,Net-(U3-Pad10)*%
X47112000Y-78999000D03*
%TO.P,U1,26,D7*%
%TO.N,Net-(U1-Pad26)*%
X47112000Y-76459000D03*
%TO.P,U1,27,D6*%
%TO.N,Net-(U1-Pad27)*%
X47112000Y-73919000D03*
%TO.P,U1,28,D5*%
%TO.N,Net-(U1-Pad28)*%
X47112000Y-71379000D03*
%TO.P,U1,29,D4*%
%TO.N,Net-(U1-Pad29)*%
X47112000Y-68839000D03*
%TO.P,U1,30,D3*%
%TO.N,Net-(U1-Pad30)*%
X47112000Y-66299000D03*
%TO.P,U1,31,D2*%
%TO.N,Net-(U1-Pad31)*%
X47112000Y-63759000D03*
%TO.P,U1,32,D1*%
%TO.N,Net-(U1-Pad32)*%
X47112000Y-61219000D03*
%TO.P,U1,33,D0*%
%TO.N,Net-(U1-Pad33)*%
X47112000Y-58679000D03*
%TO.P,U1,34,RWB*%
%TO.N,/R{slash}W*%
X47112000Y-56139000D03*
%TO.P,U1,35,NC*%
%TO.N,unconnected-(U1-Pad35)*%
X47112000Y-53599000D03*
%TO.P,U1,36,BE*%
%TO.N,+3V3*%
X47112000Y-51059000D03*
%TO.P,U1,37,PHI2*%
%TO.N,/CLK*%
X47112000Y-48519000D03*
%TO.P,U1,38,SOB*%
%TO.N,+3V3*%
X47112000Y-45979000D03*
%TO.P,U1,39,PHI2O*%
%TO.N,unconnected-(U1-Pad39)*%
X47112000Y-43439000D03*
%TO.P,U1,40,RESB*%
%TO.N,/~{RST}*%
X47112000Y-40899000D03*
%TD*%
D13*
%TO.P,SW1,2,2*%
%TO.N,Net-(U4-Pad29)*%
X70560000Y-91531000D03*
X64060000Y-91531000D03*
%TO.P,SW1,1,1*%
%TO.N,GND*%
X70560000Y-87031000D03*
X64060000Y-87031000D03*
%TD*%
D11*
%TO.P,R1,2*%
%TO.N,+3V3*%
X59944000Y-91567000D03*
D14*
%TO.P,R1,1*%
%TO.N,Net-(R1-Pad1)*%
X52324000Y-91567000D03*
%TD*%
D15*
%TO.N,GND*%
X62733000Y-41280000D03*
X61717000Y-41280000D03*
X63114000Y-43312000D03*
X64257000Y-43312000D03*
D16*
%TO.N,+3V3*%
X70739000Y-38481000D03*
X66675000Y-38481000D03*
D15*
%TO.N,Net-(U4-Pad29)*%
X85598000Y-68961000D03*
X81153000Y-68961000D03*
%TO.N,Net-(R1-Pad1)*%
X39751000Y-47371000D03*
X39751000Y-68580000D03*
%TO.N,/AS*%
X84709000Y-62611000D03*
X71120000Y-63246000D03*
X84074000Y-42545000D03*
X75311000Y-40259000D03*
%TO.N,/~{NMI}*%
X69596000Y-42164000D03*
X55372000Y-45466000D03*
%TO.N,/~{IRQ}*%
X69596000Y-44704000D03*
X56007000Y-44704000D03*
%TO.N,/CLK*%
X68834000Y-47244000D03*
X63500000Y-45974000D03*
%TO.N,/R{slash}W*%
X68199000Y-54864000D03*
X62484000Y-54864000D03*
%TO.N,Net-(U3-Pad10)*%
X56261000Y-78486000D03*
%TO.N,Net-(U1-Pad24)*%
X55499000Y-79248000D03*
%TO.N,Net-(U1-Pad23)*%
X54737000Y-80518000D03*
%TO.N,Net-(U1-Pad22)*%
X53975000Y-81280000D03*
%TO.N,Net-(U2-Pad10)*%
X49784000Y-67564000D03*
%TO.N,Net-(U2-Pad13)*%
X49784000Y-65024000D03*
%TO.N,Net-(U1-Pad18)*%
X49784000Y-62484000D03*
%TO.N,Net-(U1-Pad17)*%
X49784000Y-59944000D03*
%TD*%
D17*
%TO.N,/AS*%
X65903000Y-42164000D02*
X67437000Y-42164000D01*
X67437000Y-42164000D02*
X69342000Y-40259000D01*
X69342000Y-40259000D02*
X75311000Y-40259000D01*
X64257000Y-40518000D02*
X65903000Y-42164000D01*
X59446000Y-40518000D02*
X64257000Y-40518000D01*
X59065000Y-40899000D02*
X59446000Y-40518000D01*
%TO.N,Net-(R1-Pad1)*%
X39751000Y-86233000D02*
X45085000Y-91567000D01*
X39751000Y-68580000D02*
X39751000Y-86233000D01*
X45085000Y-91567000D02*
X52324000Y-91567000D01*
%TO.N,Net-(U2-Pad10)*%
X36148000Y-70028188D02*
X38612188Y-67564000D01*
X36148000Y-84883000D02*
X36148000Y-70028188D01*
X31872000Y-89159000D02*
X36148000Y-84883000D01*
X38612188Y-67564000D02*
X49784000Y-67564000D01*
%TO.N,Net-(U2-Pad13)*%
X40515792Y-65024000D02*
X49784000Y-65024000D01*
X31872000Y-86619000D02*
X35698000Y-82793000D01*
X35698000Y-82793000D02*
X35698000Y-69841792D01*
X35698000Y-69841792D02*
X40515792Y-65024000D01*
%TO.N,Net-(U1-Pad18)*%
X35248000Y-69655396D02*
X42419396Y-62484000D01*
X42419396Y-62484000D02*
X49784000Y-62484000D01*
X35248000Y-80703000D02*
X35248000Y-69655396D01*
X31872000Y-84079000D02*
X35248000Y-80703000D01*
%TO.N,Net-(U1-Pad17)*%
X44323000Y-59944000D02*
X49784000Y-59944000D01*
X34798000Y-69469000D02*
X44323000Y-59944000D01*
X34798000Y-78613000D02*
X34798000Y-69469000D01*
X31872000Y-81539000D02*
X34798000Y-78613000D01*
%TO.N,/~{NMI}*%
X38857000Y-53599000D02*
X31872000Y-53599000D01*
X45212000Y-47244000D02*
X38857000Y-53599000D01*
X53594000Y-47244000D02*
X45212000Y-47244000D01*
X55372000Y-45466000D02*
X53594000Y-47244000D01*
%TO.N,/~{IRQ}*%
X44831000Y-44704000D02*
X41016000Y-48519000D01*
X56007000Y-44704000D02*
X44831000Y-44704000D01*
X41016000Y-48519000D02*
X31872000Y-48519000D01*
%TO.N,/CLK*%
X56954000Y-47313000D02*
X55748000Y-48519000D01*
X55748000Y-48519000D02*
X47112000Y-48519000D01*
X58420000Y-42164000D02*
X56954000Y-43630000D01*
X59690000Y-42164000D02*
X58420000Y-42164000D01*
X56954000Y-43630000D02*
X56954000Y-47313000D01*
X63500000Y-45974000D02*
X59690000Y-42164000D01*
%TO.N,Net-(U1-Pad9)*%
X55880000Y-49784000D02*
X45085000Y-49784000D01*
X33650000Y-61219000D02*
X31872000Y-61219000D01*
X57404000Y-48260000D02*
X55880000Y-49784000D01*
X57404000Y-45100000D02*
X57404000Y-48260000D01*
X45085000Y-49784000D02*
X33650000Y-61219000D01*
X59065000Y-43439000D02*
X57404000Y-45100000D01*
D18*
%TO.N,+3V3*%
X70739000Y-38481000D02*
X30226000Y-38481000D01*
D17*
%TO.N,/~{NMI}*%
X83370000Y-76512000D02*
X85907000Y-79049000D01*
X85907000Y-79049000D02*
X95504000Y-79049000D01*
X83370000Y-45905000D02*
X83370000Y-76512000D01*
X79629000Y-42164000D02*
X83370000Y-45905000D01*
X69596000Y-42164000D02*
X79629000Y-42164000D01*
%TO.N,Net-(U2-Pad4)*%
X62098000Y-48519000D02*
X59065000Y-48519000D01*
X65913000Y-44704000D02*
X62098000Y-48519000D01*
X68453000Y-43942000D02*
X67691000Y-44704000D01*
X68453000Y-42037000D02*
X68453000Y-43942000D01*
X77724000Y-40949000D02*
X69541000Y-40949000D01*
X69541000Y-40949000D02*
X68453000Y-42037000D01*
X67691000Y-44704000D02*
X65913000Y-44704000D01*
%TO.N,/R{slash}W*%
X84637000Y-89209000D02*
X95504000Y-89209000D01*
X82020000Y-86592000D02*
X84637000Y-89209000D01*
X79271000Y-49934000D02*
X82020000Y-52683000D01*
X70358000Y-54864000D02*
X75288000Y-49934000D01*
X82020000Y-52683000D02*
X82020000Y-86592000D01*
X68199000Y-54864000D02*
X70358000Y-54864000D01*
X75288000Y-49934000D02*
X79271000Y-49934000D01*
%TO.N,/CLK*%
X85399000Y-86669000D02*
X95504000Y-86669000D01*
X82470000Y-83740000D02*
X85399000Y-86669000D01*
X82470000Y-49704000D02*
X82470000Y-83740000D01*
X80010000Y-47244000D02*
X82470000Y-49704000D01*
X68834000Y-47244000D02*
X80010000Y-47244000D01*
%TO.N,/~{IRQ}*%
X85907000Y-81589000D02*
X95504000Y-81589000D01*
X82920000Y-47741000D02*
X82920000Y-78602000D01*
X82920000Y-78602000D02*
X85907000Y-81589000D01*
X79883000Y-44704000D02*
X82920000Y-47741000D01*
X69596000Y-44704000D02*
X79883000Y-44704000D01*
%TO.N,Net-(U2-Pad7)*%
X69541000Y-43489000D02*
X77724000Y-43489000D01*
X68903000Y-44127000D02*
X69541000Y-43489000D01*
X68903000Y-44128396D02*
X68903000Y-44127000D01*
X67564000Y-47244000D02*
X68326000Y-46482000D01*
X68326000Y-44705396D02*
X68903000Y-44128396D01*
X64008000Y-48768000D02*
X65532000Y-47244000D01*
X64008000Y-55118000D02*
X64008000Y-48768000D01*
X62987000Y-56139000D02*
X64008000Y-55118000D01*
X65532000Y-47244000D02*
X67564000Y-47244000D01*
X59065000Y-56139000D02*
X62987000Y-56139000D01*
X68326000Y-46482000D02*
X68326000Y-44705396D01*
%TO.N,+3V3*%
X29591000Y-90678000D02*
X29591000Y-58039000D01*
X31877000Y-92964000D02*
X29591000Y-90678000D01*
X55626000Y-92964000D02*
X31877000Y-92964000D01*
X57023000Y-91567000D02*
X55626000Y-92964000D01*
X59944000Y-91567000D02*
X57023000Y-91567000D01*
X38735000Y-52324000D02*
X29591000Y-52324000D01*
X45080000Y-45979000D02*
X38735000Y-52324000D01*
X47112000Y-45979000D02*
X45080000Y-45979000D01*
D18*
X29591000Y-39116000D02*
X29591000Y-52324000D01*
X29591000Y-52324000D02*
X29591000Y-58039000D01*
X30231000Y-58679000D02*
X31872000Y-58679000D01*
X30226000Y-38481000D02*
X29591000Y-39116000D01*
X86995000Y-40894000D02*
X84582000Y-38481000D01*
X84582000Y-38481000D02*
X70739000Y-38481000D01*
X29591000Y-58039000D02*
X30231000Y-58679000D01*
X86995000Y-45974000D02*
X86995000Y-40894000D01*
X92130000Y-51109000D02*
X86995000Y-45974000D01*
X95504000Y-51109000D02*
X92130000Y-51109000D01*
D17*
%TO.N,/~{RST}*%
X52197000Y-39624000D02*
X50922000Y-40899000D01*
X79502000Y-39624000D02*
X52197000Y-39624000D01*
X83820000Y-43942000D02*
X79502000Y-39624000D01*
X83820000Y-74422000D02*
X83820000Y-43942000D01*
X85907000Y-76509000D02*
X83820000Y-74422000D01*
X50922000Y-40899000D02*
X47112000Y-40899000D01*
X95504000Y-76509000D02*
X85907000Y-76509000D01*
%TO.N,/AS*%
X71120000Y-63246000D02*
X62865000Y-63246000D01*
X62865000Y-63246000D02*
X61610000Y-61991000D01*
X61610000Y-61991000D02*
X59065000Y-61991000D01*
%TO.N,Net-(U3-Pad4)*%
X61389500Y-69611000D02*
X59065000Y-69611000D01*
X72045000Y-57622000D02*
X72045000Y-63718000D01*
X72045000Y-63718000D02*
X69977000Y-65786000D01*
X76018000Y-53649000D02*
X72045000Y-57622000D01*
X65214500Y-65786000D02*
X61389500Y-69611000D01*
X77724000Y-53649000D02*
X76018000Y-53649000D01*
X69977000Y-65786000D02*
X65214500Y-65786000D01*
%TO.N,Net-(U3-Pad7)*%
X61326000Y-77231000D02*
X59065000Y-77231000D01*
X64516000Y-72009000D02*
X64516000Y-74041000D01*
X72495000Y-68727604D02*
X70356604Y-70866000D01*
X72495000Y-59331000D02*
X72495000Y-68727604D01*
X70356604Y-70866000D02*
X65659000Y-70866000D01*
X75637000Y-56189000D02*
X72495000Y-59331000D01*
X65659000Y-70866000D02*
X64516000Y-72009000D01*
X77724000Y-56189000D02*
X75637000Y-56189000D01*
X64516000Y-74041000D02*
X61326000Y-77231000D01*
%TO.N,Net-(U3-Pad12)*%
X69708000Y-72151000D02*
X72945000Y-68914000D01*
X76426500Y-61269000D02*
X77724000Y-61269000D01*
X66685000Y-72151000D02*
X69708000Y-72151000D01*
X72945000Y-68914000D02*
X72945000Y-64750500D01*
X72945000Y-64750500D02*
X76426500Y-61269000D01*
%TO.N,Net-(U3-Pad9)*%
X73395000Y-66940000D02*
X76526000Y-63809000D01*
X76526000Y-63809000D02*
X77724000Y-63809000D01*
X73395000Y-77100000D02*
X73395000Y-66940000D01*
X70724000Y-79771000D02*
X73395000Y-77100000D01*
X66685000Y-79771000D02*
X70724000Y-79771000D01*
%TO.N,Net-(U1-Pad33)*%
X76399000Y-66349000D02*
X77724000Y-66349000D01*
X73845000Y-80460000D02*
X73845000Y-68903000D01*
X72136000Y-82169000D02*
X73845000Y-80460000D01*
X53721000Y-82169000D02*
X72136000Y-82169000D01*
X73845000Y-68903000D02*
X76399000Y-66349000D01*
X53213000Y-60960000D02*
X53213000Y-81661000D01*
X50932000Y-58679000D02*
X53213000Y-60960000D01*
X53213000Y-81661000D02*
X53721000Y-82169000D01*
X47112000Y-58679000D02*
X50932000Y-58679000D01*
%TO.N,Net-(U1-Pad31)*%
X76526000Y-73969000D02*
X77724000Y-73969000D01*
X72508792Y-83069000D02*
X74792000Y-80785792D01*
X53348208Y-83069000D02*
X72508792Y-83069000D01*
X52288000Y-66004000D02*
X52288000Y-82008792D01*
X52288000Y-82008792D02*
X53348208Y-83069000D01*
X50043000Y-63759000D02*
X52288000Y-66004000D01*
X74792000Y-80785792D02*
X74792000Y-75703000D01*
X74792000Y-75703000D02*
X76526000Y-73969000D01*
X47112000Y-63759000D02*
X50043000Y-63759000D01*
%TO.N,Net-(U1-Pad30)*%
X76526000Y-76509000D02*
X77724000Y-76509000D01*
X75242000Y-77793000D02*
X76526000Y-76509000D01*
X53161812Y-83519000D02*
X72695188Y-83519000D01*
X72695188Y-83519000D02*
X75242000Y-80972188D01*
X75242000Y-80972188D02*
X75242000Y-77793000D01*
X51838000Y-82195188D02*
X53161812Y-83519000D01*
X51838000Y-68221000D02*
X51838000Y-82195188D01*
X47112000Y-66299000D02*
X49916000Y-66299000D01*
X49916000Y-66299000D02*
X51838000Y-68221000D01*
%TO.N,Net-(U1-Pad29)*%
X76399000Y-79049000D02*
X77724000Y-79049000D01*
X75692000Y-81158584D02*
X75692000Y-79756000D01*
X75692000Y-79756000D02*
X76399000Y-79049000D01*
X72881584Y-83969000D02*
X75692000Y-81158584D01*
X52975416Y-83969000D02*
X72881584Y-83969000D01*
X51388000Y-71073000D02*
X51388000Y-82381584D01*
X49154000Y-68839000D02*
X51388000Y-71073000D01*
X51388000Y-82381584D02*
X52975416Y-83969000D01*
X47112000Y-68839000D02*
X49154000Y-68839000D01*
%TO.N,Net-(U1-Pad32)*%
X76045500Y-68889000D02*
X77724000Y-68889000D01*
X74295000Y-80646396D02*
X74295000Y-70639500D01*
X74295000Y-70639500D02*
X76045500Y-68889000D01*
X52738000Y-81822396D02*
X53534604Y-82619000D01*
X53534604Y-82619000D02*
X72322396Y-82619000D01*
X52738000Y-63787000D02*
X52738000Y-81822396D01*
X72322396Y-82619000D02*
X74295000Y-80646396D01*
X50170000Y-61219000D02*
X52738000Y-63787000D01*
X47112000Y-61219000D02*
X50170000Y-61219000D01*
%TO.N,Net-(U4-Pad29)*%
X85670000Y-68889000D02*
X95504000Y-68889000D01*
X85598000Y-68961000D02*
X85670000Y-68889000D01*
X79284000Y-91531000D02*
X70560000Y-91531000D01*
X81153000Y-89662000D02*
X79284000Y-91531000D01*
X81153000Y-68961000D02*
X81153000Y-89662000D01*
X64060000Y-91531000D02*
X70560000Y-91531000D01*
%TO.N,Net-(R1-Pad1)*%
X39751000Y-45720000D02*
X39751000Y-47371000D01*
X37470000Y-43439000D02*
X39751000Y-45720000D01*
X31872000Y-43439000D02*
X37470000Y-43439000D01*
%TO.N,Net-(U1-Pad10)*%
X57526000Y-51059000D02*
X59065000Y-51059000D01*
X56261000Y-52324000D02*
X57526000Y-51059000D01*
X33713500Y-63759000D02*
X45148500Y-52324000D01*
X45148500Y-52324000D02*
X56261000Y-52324000D01*
X31872000Y-63759000D02*
X33713500Y-63759000D01*
%TO.N,Net-(U1-Pad26)*%
X50038000Y-77343000D02*
X49154000Y-76459000D01*
X50038000Y-82940772D02*
X50038000Y-77343000D01*
X72617604Y-85319000D02*
X52416228Y-85319000D01*
X52416228Y-85319000D02*
X50038000Y-82940772D01*
X75634000Y-87119000D02*
X74417604Y-87119000D01*
X77724000Y-89209000D02*
X75634000Y-87119000D01*
X74417604Y-87119000D02*
X72617604Y-85319000D01*
X49154000Y-76459000D02*
X47112000Y-76459000D01*
%TO.N,Net-(U1-Pad28)*%
X75897980Y-81589000D02*
X77724000Y-81589000D01*
X52789020Y-84419000D02*
X73067980Y-84419000D01*
X50938000Y-82567980D02*
X52789020Y-84419000D01*
X73067980Y-84419000D02*
X75897980Y-81589000D01*
X47112000Y-71379000D02*
X49281000Y-71379000D01*
X49281000Y-71379000D02*
X50938000Y-73036000D01*
X50938000Y-73036000D02*
X50938000Y-82567980D01*
%TO.N,Net-(U1-Pad27)*%
X52602624Y-84869000D02*
X72804000Y-84869000D01*
X72804000Y-84869000D02*
X74604000Y-86669000D01*
X74604000Y-86669000D02*
X77724000Y-86669000D01*
X50488000Y-82754376D02*
X52602624Y-84869000D01*
X49281000Y-73919000D02*
X50488000Y-75126000D01*
X50488000Y-75126000D02*
X50488000Y-82754376D01*
X47112000Y-73919000D02*
X49281000Y-73919000D01*
%TO.N,Net-(U1-Pad22)*%
X53975000Y-68262500D02*
X55166500Y-67071000D01*
X53975000Y-81280000D02*
X53975000Y-68262500D01*
X55166500Y-67071000D02*
X59065000Y-67071000D01*
%TO.N,Net-(U1-Pad23)*%
X54737000Y-76327000D02*
X56373000Y-74691000D01*
X54737000Y-80518000D02*
X54737000Y-76327000D01*
X56373000Y-74691000D02*
X59065000Y-74691000D01*
%TO.N,Net-(U1-Pad24)*%
X63627000Y-73025000D02*
X63627000Y-70739000D01*
X64755000Y-69611000D02*
X66685000Y-69611000D01*
X60706000Y-75946000D02*
X63627000Y-73025000D01*
X63627000Y-70739000D02*
X64755000Y-69611000D01*
X56642000Y-75946000D02*
X60706000Y-75946000D01*
X55499000Y-77089000D02*
X56642000Y-75946000D01*
X55499000Y-79248000D02*
X55499000Y-77089000D01*
%TO.N,Net-(U3-Pad10)*%
X56261000Y-78486000D02*
X63754000Y-78486000D01*
X63754000Y-78486000D02*
X65009000Y-77231000D01*
X65009000Y-77231000D02*
X66685000Y-77231000D01*
%TO.N,/AS*%
X84709000Y-43180000D02*
X84074000Y-42545000D01*
X84709000Y-62611000D02*
X84709000Y-43180000D01*
X84709000Y-72136000D02*
X86542000Y-73969000D01*
X84709000Y-62611000D02*
X84709000Y-72136000D01*
X86542000Y-73969000D02*
X95504000Y-73969000D01*
%TO.N,Net-(U2-Pad14)*%
X33523000Y-66299000D02*
X31872000Y-66299000D01*
X57531000Y-52324000D02*
X54991000Y-54864000D01*
X44958000Y-54864000D02*
X33523000Y-66299000D01*
X63558000Y-50869000D02*
X62103000Y-52324000D01*
X63558000Y-47821000D02*
X63558000Y-50869000D01*
X54991000Y-54864000D02*
X44958000Y-54864000D01*
X65400000Y-45979000D02*
X63558000Y-47821000D01*
X62103000Y-52324000D02*
X57531000Y-52324000D01*
X66685000Y-45979000D02*
X65400000Y-45979000D01*
%TO.N,/R{slash}W*%
X57531000Y-54864000D02*
X62484000Y-54864000D01*
X57404000Y-54991000D02*
X57531000Y-54864000D01*
X47112000Y-56139000D02*
X56256000Y-56139000D01*
X56256000Y-56139000D02*
X57404000Y-54991000D01*
%TO.N,Net-(U2-Pad11)*%
X64516000Y-56388000D02*
X64516000Y-54483000D01*
X64516000Y-54483000D02*
X65400000Y-53599000D01*
X63500000Y-57404000D02*
X64516000Y-56388000D01*
X33650000Y-68839000D02*
X45085000Y-57404000D01*
X45085000Y-57404000D02*
X63500000Y-57404000D01*
X65400000Y-53599000D02*
X66685000Y-53599000D01*
X31872000Y-68839000D02*
X33650000Y-68839000D01*
%TO.N,Net-(U2-Pad12)*%
X74779750Y-48569000D02*
X77724000Y-48569000D01*
X72289750Y-51059000D02*
X74779750Y-48569000D01*
X66685000Y-51059000D02*
X72289750Y-51059000D01*
%TO.N,Net-(U2-Pad9)*%
X68702000Y-58679000D02*
X76272000Y-51109000D01*
X76272000Y-51109000D02*
X77724000Y-51109000D01*
X66685000Y-58679000D02*
X68702000Y-58679000D01*
%TD*%
%TA.AperFunction,Conductor*%
%TO.N,GND*%
G36*
X63123268Y-40917907D02*
G01*
X63143718Y-40937862D01*
X64744641Y-43031377D01*
X64765000Y-43091515D01*
X64765000Y-43721000D01*
X64746093Y-43779191D01*
X64696593Y-43815155D01*
X64666000Y-43820000D01*
X62908923Y-43820000D01*
X62850732Y-43801093D01*
X62830282Y-43781138D01*
X61229359Y-41687623D01*
X61209000Y-41627485D01*
X61209000Y-40998000D01*
X61227907Y-40939809D01*
X61277407Y-40903845D01*
X61308000Y-40899000D01*
X63065077Y-40899000D01*
X63123268Y-40917907D01*
G37*
%TD.AperFunction*%
%TD*%
M02*
