M48
; DRILL file {KiCad (6.0.8)} date Sat Nov  5 16:03:13 2022
; FORMAT={-:-/ absolute / inch / decimal}
; #@! TF.CreationDate,2022-11-05T16:03:13+08:00
; #@! TF.GenerationSoftware,Kicad,Pcbnew,(6.0.8)
; #@! TF.FileFunction,Plated,1,2,PTH
FMAT,2
INCH
; #@! TA.AperFunction,Plated,PTH,ViaDrill
T1C0.0118
; #@! TA.AperFunction,Plated,PTH,ViaDrill
T2C0.0197
; #@! TA.AperFunction,Plated,PTH,ComponentDrill
T3C0.0315
; #@! TA.AperFunction,Plated,PTH,ComponentDrill
T4C0.0394
; #@! TA.AperFunction,Plated,PTH,ComponentDrill
T5C0.0433
%
G90
G05
T1
X1.565Y-1.865
X1.565Y-2.7
X1.96Y-2.36
X1.96Y-2.46
X1.96Y-2.56
X1.96Y-2.66
X2.125Y-3.2
X2.155Y-3.17
X2.18Y-1.79
X2.185Y-3.12
X2.205Y-1.76
X2.215Y-3.09
X2.4298Y-1.6252
X2.46Y-2.16
X2.4698Y-1.6252
X2.4848Y-1.7052
X2.5Y-1.81
X2.5298Y-1.7052
X2.685Y-2.16
X2.71Y-1.86
X2.74Y-1.66
X2.74Y-1.76
X2.8Y-2.49
X2.965Y-1.585
X3.195Y-2.715
X3.31Y-1.675
X3.335Y-2.465
X3.37Y-2.715
T2
X2.625Y-1.515
X2.785Y-1.515
T3
X1.2548Y-1.6102
X1.2548Y-1.7102
X1.2548Y-1.8102
X1.2548Y-1.9102
X1.2548Y-2.0102
X1.2548Y-2.1102
X1.2548Y-2.2102
X1.2548Y-2.3102
X1.2548Y-2.4102
X1.2548Y-2.5102
X1.2548Y-2.6102
X1.2548Y-2.7102
X1.2548Y-2.8102
X1.2548Y-2.9102
X1.2548Y-3.0102
X1.2548Y-3.1102
X1.2548Y-3.2102
X1.2548Y-3.3102
X1.2548Y-3.4102
X1.2548Y-3.5102
X1.8548Y-1.6102
X1.8548Y-1.7102
X1.8548Y-1.8102
X1.8548Y-1.9102
X1.8548Y-2.0102
X1.8548Y-2.1102
X1.8548Y-2.2102
X1.8548Y-2.3102
X1.8548Y-2.4102
X1.8548Y-2.5102
X1.8548Y-2.6102
X1.8548Y-2.7102
X1.8548Y-2.8102
X1.8548Y-2.9102
X1.8548Y-3.0102
X1.8548Y-3.1102
X1.8548Y-3.2102
X1.8548Y-3.3102
X1.8548Y-3.4102
X1.8548Y-3.5102
X2.06Y-3.605
X2.3254Y-1.6102
X2.3254Y-1.7102
X2.3254Y-1.8102
X2.3254Y-1.9102
X2.3254Y-2.0102
X2.3254Y-2.1102
X2.3254Y-2.2102
X2.3254Y-2.3102
X2.3254Y-2.4406
X2.3254Y-2.5406
X2.3254Y-2.6406
X2.3254Y-2.7406
X2.3254Y-2.8406
X2.3254Y-2.9406
X2.3254Y-3.0406
X2.3254Y-3.1406
X2.36Y-3.605
X2.6254Y-1.6102
X2.6254Y-1.7102
X2.6254Y-1.8102
X2.6254Y-1.9102
X2.6254Y-2.0102
X2.6254Y-2.1102
X2.6254Y-2.2102
X2.6254Y-2.3102
X2.6254Y-2.4406
X2.6254Y-2.5406
X2.6254Y-2.6406
X2.6254Y-2.7406
X2.6254Y-2.8406
X2.6254Y-2.9406
X2.6254Y-3.0406
X2.6254Y-3.1406
T4
X3.06Y-1.6122
X3.06Y-1.7122
X3.06Y-1.8122
X3.06Y-1.9122
X3.06Y-2.0122
X3.06Y-2.1122
X3.06Y-2.2122
X3.06Y-2.3122
X3.06Y-2.4122
X3.06Y-2.5122
X3.06Y-2.6122
X3.06Y-2.7122
X3.06Y-2.8122
X3.06Y-2.9122
X3.06Y-3.0122
X3.06Y-3.1122
X3.06Y-3.2122
X3.06Y-3.3122
X3.06Y-3.4122
X3.06Y-3.5122
X3.76Y-1.6122
X3.76Y-1.7122
X3.76Y-1.8122
X3.76Y-1.9122
X3.76Y-2.0122
X3.76Y-2.1122
X3.76Y-2.2122
X3.76Y-2.3122
X3.76Y-2.4122
X3.76Y-2.5122
X3.76Y-2.6122
X3.76Y-2.7122
X3.76Y-2.8122
X3.76Y-2.9122
X3.76Y-3.0122
X3.76Y-3.1122
X3.76Y-3.2122
X3.76Y-3.3122
X3.76Y-3.4122
X3.76Y-3.5122
T5
X2.522Y-3.4264
X2.522Y-3.6036
X2.778Y-3.4264
X2.778Y-3.6036
T0
M30
