%TF.GenerationSoftware,KiCad,Pcbnew,(6.0.8)*%
%TF.CreationDate,2022-11-05T16:03:21+08:00*%
%TF.ProjectId,pico_apple1,7069636f-5f61-4707-906c-65312e6b6963,rev?*%
%TF.SameCoordinates,Original*%
%TF.FileFunction,Drillmap*%
%TF.FilePolarity,Positive*%
%FSLAX45Y45*%
G04 Gerber Fmt 4.5, Leading zero omitted, Abs format (unit mm)*
G04 Created by KiCad (PCBNEW (6.0.8)) date 2022-11-05 16:03:21*
%MOMM*%
%LPD*%
G01*
G04 APERTURE LIST*
%ADD10C,0.100000*%
%ADD11C,0.200000*%
%ADD12C,0.030000*%
%ADD13C,0.050000*%
%ADD14C,0.080000*%
%ADD15C,0.110000*%
G04 APERTURE END LIST*
D10*
X2787200Y-9389900D02*
X2787200Y-3689900D01*
X9887200Y-9389900D02*
X2787200Y-9389900D01*
X9887200Y-3689900D02*
X9887200Y-9389900D01*
X2787200Y-3689900D02*
X9887200Y-3689900D01*
D11*
D12*
X3960100Y-4722100D02*
X3990100Y-4752100D01*
X3990100Y-4722100D02*
X3960100Y-4752100D01*
X3960100Y-6843000D02*
X3990100Y-6873000D01*
X3990100Y-6843000D02*
X3960100Y-6873000D01*
X4963400Y-5979400D02*
X4993400Y-6009400D01*
X4993400Y-5979400D02*
X4963400Y-6009400D01*
X4963400Y-6233400D02*
X4993400Y-6263400D01*
X4993400Y-6233400D02*
X4963400Y-6263400D01*
X4963400Y-6487400D02*
X4993400Y-6517400D01*
X4993400Y-6487400D02*
X4963400Y-6517400D01*
X4963400Y-6741400D02*
X4993400Y-6771400D01*
X4993400Y-6741400D02*
X4963400Y-6771400D01*
X5382500Y-8113000D02*
X5412500Y-8143000D01*
X5412500Y-8113000D02*
X5382500Y-8143000D01*
X5458700Y-8036800D02*
X5488700Y-8066800D01*
X5488700Y-8036800D02*
X5458700Y-8066800D01*
X5522200Y-4531600D02*
X5552200Y-4561600D01*
X5552200Y-4531600D02*
X5522200Y-4561600D01*
X5534900Y-7909800D02*
X5564900Y-7939800D01*
X5564900Y-7909800D02*
X5534900Y-7939800D01*
X5585700Y-4455400D02*
X5615700Y-4485400D01*
X5615700Y-4455400D02*
X5585700Y-4485400D01*
X5611100Y-7833600D02*
X5641100Y-7863600D01*
X5641100Y-7833600D02*
X5611100Y-7863600D01*
X6156700Y-4113000D02*
X6186700Y-4143000D01*
X6186700Y-4113000D02*
X6156700Y-4143000D01*
X6233400Y-5471400D02*
X6263400Y-5501400D01*
X6263400Y-5471400D02*
X6233400Y-5501400D01*
X6258300Y-4113000D02*
X6288300Y-4143000D01*
X6288300Y-4113000D02*
X6258300Y-4143000D01*
X6296400Y-4316200D02*
X6326400Y-4346200D01*
X6326400Y-4316200D02*
X6296400Y-4346200D01*
X6335000Y-4582400D02*
X6365000Y-4612400D01*
X6365000Y-4582400D02*
X6335000Y-4612400D01*
X6410700Y-4316200D02*
X6440700Y-4346200D01*
X6440700Y-4316200D02*
X6410700Y-4346200D01*
X6804900Y-5471400D02*
X6834900Y-5501400D01*
X6834900Y-5471400D02*
X6804900Y-5501400D01*
X6868400Y-4709400D02*
X6898400Y-4739400D01*
X6898400Y-4709400D02*
X6868400Y-4739400D01*
X6944600Y-4201400D02*
X6974600Y-4231400D01*
X6974600Y-4201400D02*
X6944600Y-4231400D01*
X6944600Y-4455400D02*
X6974600Y-4485400D01*
X6974600Y-4455400D02*
X6944600Y-4485400D01*
X7097000Y-6309600D02*
X7127000Y-6339600D01*
X7127000Y-6309600D02*
X7097000Y-6339600D01*
X7516100Y-4010900D02*
X7546100Y-4040900D01*
X7546100Y-4010900D02*
X7516100Y-4040900D01*
X8100300Y-6881100D02*
X8130300Y-6911100D01*
X8130300Y-6881100D02*
X8100300Y-6911100D01*
X8392400Y-4239500D02*
X8422400Y-4269500D01*
X8422400Y-4239500D02*
X8392400Y-4269500D01*
X8455900Y-6246100D02*
X8485900Y-6276100D01*
X8485900Y-6246100D02*
X8455900Y-6276100D01*
X8544800Y-6881100D02*
X8574800Y-6911100D01*
X8574800Y-6881100D02*
X8544800Y-6911100D01*
D13*
X6692500Y-3848100D02*
G75*
G03*
X6692500Y-3848100I-25000J0D01*
G01*
X7098900Y-3848100D02*
G75*
G03*
X7098900Y-3848100I-25000J0D01*
G01*
D14*
X3187200Y-4049900D02*
X3187200Y-4129900D01*
X3147200Y-4089900D02*
X3227200Y-4089900D01*
X3187200Y-4303900D02*
X3187200Y-4383900D01*
X3147200Y-4343900D02*
X3227200Y-4343900D01*
X3187200Y-4557900D02*
X3187200Y-4637900D01*
X3147200Y-4597900D02*
X3227200Y-4597900D01*
X3187200Y-4811900D02*
X3187200Y-4891900D01*
X3147200Y-4851900D02*
X3227200Y-4851900D01*
X3187200Y-5065900D02*
X3187200Y-5145900D01*
X3147200Y-5105900D02*
X3227200Y-5105900D01*
X3187200Y-5319900D02*
X3187200Y-5399900D01*
X3147200Y-5359900D02*
X3227200Y-5359900D01*
X3187200Y-5573900D02*
X3187200Y-5653900D01*
X3147200Y-5613900D02*
X3227200Y-5613900D01*
X3187200Y-5827900D02*
X3187200Y-5907900D01*
X3147200Y-5867900D02*
X3227200Y-5867900D01*
X3187200Y-6081900D02*
X3187200Y-6161900D01*
X3147200Y-6121900D02*
X3227200Y-6121900D01*
X3187200Y-6335900D02*
X3187200Y-6415900D01*
X3147200Y-6375900D02*
X3227200Y-6375900D01*
X3187200Y-6589900D02*
X3187200Y-6669900D01*
X3147200Y-6629900D02*
X3227200Y-6629900D01*
X3187200Y-6843900D02*
X3187200Y-6923900D01*
X3147200Y-6883900D02*
X3227200Y-6883900D01*
X3187200Y-7097900D02*
X3187200Y-7177900D01*
X3147200Y-7137900D02*
X3227200Y-7137900D01*
X3187200Y-7351900D02*
X3187200Y-7431900D01*
X3147200Y-7391900D02*
X3227200Y-7391900D01*
X3187200Y-7605900D02*
X3187200Y-7685900D01*
X3147200Y-7645900D02*
X3227200Y-7645900D01*
X3187200Y-7859900D02*
X3187200Y-7939900D01*
X3147200Y-7899900D02*
X3227200Y-7899900D01*
X3187200Y-8113900D02*
X3187200Y-8193900D01*
X3147200Y-8153900D02*
X3227200Y-8153900D01*
X3187200Y-8367900D02*
X3187200Y-8447900D01*
X3147200Y-8407900D02*
X3227200Y-8407900D01*
X3187200Y-8621900D02*
X3187200Y-8701900D01*
X3147200Y-8661900D02*
X3227200Y-8661900D01*
X3187200Y-8875900D02*
X3187200Y-8955900D01*
X3147200Y-8915900D02*
X3227200Y-8915900D01*
X4711200Y-4049900D02*
X4711200Y-4129900D01*
X4671200Y-4089900D02*
X4751200Y-4089900D01*
X4711200Y-4303900D02*
X4711200Y-4383900D01*
X4671200Y-4343900D02*
X4751200Y-4343900D01*
X4711200Y-4557900D02*
X4711200Y-4637900D01*
X4671200Y-4597900D02*
X4751200Y-4597900D01*
X4711200Y-4811900D02*
X4711200Y-4891900D01*
X4671200Y-4851900D02*
X4751200Y-4851900D01*
X4711200Y-5065900D02*
X4711200Y-5145900D01*
X4671200Y-5105900D02*
X4751200Y-5105900D01*
X4711200Y-5319900D02*
X4711200Y-5399900D01*
X4671200Y-5359900D02*
X4751200Y-5359900D01*
X4711200Y-5573900D02*
X4711200Y-5653900D01*
X4671200Y-5613900D02*
X4751200Y-5613900D01*
X4711200Y-5827900D02*
X4711200Y-5907900D01*
X4671200Y-5867900D02*
X4751200Y-5867900D01*
X4711200Y-6081900D02*
X4711200Y-6161900D01*
X4671200Y-6121900D02*
X4751200Y-6121900D01*
X4711200Y-6335900D02*
X4711200Y-6415900D01*
X4671200Y-6375900D02*
X4751200Y-6375900D01*
X4711200Y-6589900D02*
X4711200Y-6669900D01*
X4671200Y-6629900D02*
X4751200Y-6629900D01*
X4711200Y-6843900D02*
X4711200Y-6923900D01*
X4671200Y-6883900D02*
X4751200Y-6883900D01*
X4711200Y-7097900D02*
X4711200Y-7177900D01*
X4671200Y-7137900D02*
X4751200Y-7137900D01*
X4711200Y-7351900D02*
X4711200Y-7431900D01*
X4671200Y-7391900D02*
X4751200Y-7391900D01*
X4711200Y-7605900D02*
X4711200Y-7685900D01*
X4671200Y-7645900D02*
X4751200Y-7645900D01*
X4711200Y-7859900D02*
X4711200Y-7939900D01*
X4671200Y-7899900D02*
X4751200Y-7899900D01*
X4711200Y-8113900D02*
X4711200Y-8193900D01*
X4671200Y-8153900D02*
X4751200Y-8153900D01*
X4711200Y-8367900D02*
X4711200Y-8447900D01*
X4671200Y-8407900D02*
X4751200Y-8407900D01*
X4711200Y-8621900D02*
X4711200Y-8701900D01*
X4671200Y-8661900D02*
X4751200Y-8661900D01*
X4711200Y-8875900D02*
X4711200Y-8955900D01*
X4671200Y-8915900D02*
X4751200Y-8915900D01*
X5232400Y-9116700D02*
X5232400Y-9196700D01*
X5192400Y-9156700D02*
X5272400Y-9156700D01*
X5906500Y-4049900D02*
X5906500Y-4129900D01*
X5866500Y-4089900D02*
X5946500Y-4089900D01*
X5906500Y-4303900D02*
X5906500Y-4383900D01*
X5866500Y-4343900D02*
X5946500Y-4343900D01*
X5906500Y-4557900D02*
X5906500Y-4637900D01*
X5866500Y-4597900D02*
X5946500Y-4597900D01*
X5906500Y-4811900D02*
X5906500Y-4891900D01*
X5866500Y-4851900D02*
X5946500Y-4851900D01*
X5906500Y-5065900D02*
X5906500Y-5145900D01*
X5866500Y-5105900D02*
X5946500Y-5105900D01*
X5906500Y-5319900D02*
X5906500Y-5399900D01*
X5866500Y-5359900D02*
X5946500Y-5359900D01*
X5906500Y-5573900D02*
X5906500Y-5653900D01*
X5866500Y-5613900D02*
X5946500Y-5613900D01*
X5906500Y-5827900D02*
X5906500Y-5907900D01*
X5866500Y-5867900D02*
X5946500Y-5867900D01*
X5906500Y-6159100D02*
X5906500Y-6239100D01*
X5866500Y-6199100D02*
X5946500Y-6199100D01*
X5906500Y-6413100D02*
X5906500Y-6493100D01*
X5866500Y-6453100D02*
X5946500Y-6453100D01*
X5906500Y-6667100D02*
X5906500Y-6747100D01*
X5866500Y-6707100D02*
X5946500Y-6707100D01*
X5906500Y-6921100D02*
X5906500Y-7001100D01*
X5866500Y-6961100D02*
X5946500Y-6961100D01*
X5906500Y-7175100D02*
X5906500Y-7255100D01*
X5866500Y-7215100D02*
X5946500Y-7215100D01*
X5906500Y-7429100D02*
X5906500Y-7509100D01*
X5866500Y-7469100D02*
X5946500Y-7469100D01*
X5906500Y-7683100D02*
X5906500Y-7763100D01*
X5866500Y-7723100D02*
X5946500Y-7723100D01*
X5906500Y-7937100D02*
X5906500Y-8017100D01*
X5866500Y-7977100D02*
X5946500Y-7977100D01*
X5994400Y-9116700D02*
X5994400Y-9196700D01*
X5954400Y-9156700D02*
X6034400Y-9156700D01*
X6668500Y-4049900D02*
X6668500Y-4129900D01*
X6628500Y-4089900D02*
X6708500Y-4089900D01*
X6668500Y-4303900D02*
X6668500Y-4383900D01*
X6628500Y-4343900D02*
X6708500Y-4343900D01*
X6668500Y-4557900D02*
X6668500Y-4637900D01*
X6628500Y-4597900D02*
X6708500Y-4597900D01*
X6668500Y-4811900D02*
X6668500Y-4891900D01*
X6628500Y-4851900D02*
X6708500Y-4851900D01*
X6668500Y-5065900D02*
X6668500Y-5145900D01*
X6628500Y-5105900D02*
X6708500Y-5105900D01*
X6668500Y-5319900D02*
X6668500Y-5399900D01*
X6628500Y-5359900D02*
X6708500Y-5359900D01*
X6668500Y-5573900D02*
X6668500Y-5653900D01*
X6628500Y-5613900D02*
X6708500Y-5613900D01*
X6668500Y-5827900D02*
X6668500Y-5907900D01*
X6628500Y-5867900D02*
X6708500Y-5867900D01*
X6668500Y-6159100D02*
X6668500Y-6239100D01*
X6628500Y-6199100D02*
X6708500Y-6199100D01*
X6668500Y-6413100D02*
X6668500Y-6493100D01*
X6628500Y-6453100D02*
X6708500Y-6453100D01*
X6668500Y-6667100D02*
X6668500Y-6747100D01*
X6628500Y-6707100D02*
X6708500Y-6707100D01*
X6668500Y-6921100D02*
X6668500Y-7001100D01*
X6628500Y-6961100D02*
X6708500Y-6961100D01*
X6668500Y-7175100D02*
X6668500Y-7255100D01*
X6628500Y-7215100D02*
X6708500Y-7215100D01*
X6668500Y-7429100D02*
X6668500Y-7509100D01*
X6628500Y-7469100D02*
X6708500Y-7469100D01*
X6668500Y-7683100D02*
X6668500Y-7763100D01*
X6628500Y-7723100D02*
X6708500Y-7723100D01*
X6668500Y-7937100D02*
X6668500Y-8017100D01*
X6628500Y-7977100D02*
X6708500Y-7977100D01*
D10*
X7807756Y-4130256D02*
X7807756Y-4059544D01*
X7737044Y-4059544D01*
X7737044Y-4130256D01*
X7807756Y-4130256D01*
X7807756Y-4384256D02*
X7807756Y-4313544D01*
X7737044Y-4313544D01*
X7737044Y-4384256D01*
X7807756Y-4384256D01*
X7807756Y-4638256D02*
X7807756Y-4567544D01*
X7737044Y-4567544D01*
X7737044Y-4638256D01*
X7807756Y-4638256D01*
X7807756Y-4892256D02*
X7807756Y-4821544D01*
X7737044Y-4821544D01*
X7737044Y-4892256D01*
X7807756Y-4892256D01*
X7807756Y-5146256D02*
X7807756Y-5075544D01*
X7737044Y-5075544D01*
X7737044Y-5146256D01*
X7807756Y-5146256D01*
X7807756Y-5400256D02*
X7807756Y-5329544D01*
X7737044Y-5329544D01*
X7737044Y-5400256D01*
X7807756Y-5400256D01*
X7807756Y-5654256D02*
X7807756Y-5583544D01*
X7737044Y-5583544D01*
X7737044Y-5654256D01*
X7807756Y-5654256D01*
X7807756Y-5908256D02*
X7807756Y-5837544D01*
X7737044Y-5837544D01*
X7737044Y-5908256D01*
X7807756Y-5908256D01*
X7807756Y-6162256D02*
X7807756Y-6091544D01*
X7737044Y-6091544D01*
X7737044Y-6162256D01*
X7807756Y-6162256D01*
X7807756Y-6416256D02*
X7807756Y-6345544D01*
X7737044Y-6345544D01*
X7737044Y-6416256D01*
X7807756Y-6416256D01*
X7807756Y-6670256D02*
X7807756Y-6599544D01*
X7737044Y-6599544D01*
X7737044Y-6670256D01*
X7807756Y-6670256D01*
X7807756Y-6924256D02*
X7807756Y-6853544D01*
X7737044Y-6853544D01*
X7737044Y-6924256D01*
X7807756Y-6924256D01*
X7807756Y-7178256D02*
X7807756Y-7107544D01*
X7737044Y-7107544D01*
X7737044Y-7178256D01*
X7807756Y-7178256D01*
X7807756Y-7432256D02*
X7807756Y-7361544D01*
X7737044Y-7361544D01*
X7737044Y-7432256D01*
X7807756Y-7432256D01*
X7807756Y-7686256D02*
X7807756Y-7615544D01*
X7737044Y-7615544D01*
X7737044Y-7686256D01*
X7807756Y-7686256D01*
X7807756Y-7940256D02*
X7807756Y-7869544D01*
X7737044Y-7869544D01*
X7737044Y-7940256D01*
X7807756Y-7940256D01*
X7807756Y-8194256D02*
X7807756Y-8123544D01*
X7737044Y-8123544D01*
X7737044Y-8194256D01*
X7807756Y-8194256D01*
X7807756Y-8448256D02*
X7807756Y-8377544D01*
X7737044Y-8377544D01*
X7737044Y-8448256D01*
X7807756Y-8448256D01*
X7807756Y-8702256D02*
X7807756Y-8631544D01*
X7737044Y-8631544D01*
X7737044Y-8702256D01*
X7807756Y-8702256D01*
X7807756Y-8956256D02*
X7807756Y-8885544D01*
X7737044Y-8885544D01*
X7737044Y-8956256D01*
X7807756Y-8956256D01*
X9585756Y-4130256D02*
X9585756Y-4059544D01*
X9515044Y-4059544D01*
X9515044Y-4130256D01*
X9585756Y-4130256D01*
X9585756Y-4384256D02*
X9585756Y-4313544D01*
X9515044Y-4313544D01*
X9515044Y-4384256D01*
X9585756Y-4384256D01*
X9585756Y-4638256D02*
X9585756Y-4567544D01*
X9515044Y-4567544D01*
X9515044Y-4638256D01*
X9585756Y-4638256D01*
X9585756Y-4892256D02*
X9585756Y-4821544D01*
X9515044Y-4821544D01*
X9515044Y-4892256D01*
X9585756Y-4892256D01*
X9585756Y-5146256D02*
X9585756Y-5075544D01*
X9515044Y-5075544D01*
X9515044Y-5146256D01*
X9585756Y-5146256D01*
X9585756Y-5400256D02*
X9585756Y-5329544D01*
X9515044Y-5329544D01*
X9515044Y-5400256D01*
X9585756Y-5400256D01*
X9585756Y-5654256D02*
X9585756Y-5583544D01*
X9515044Y-5583544D01*
X9515044Y-5654256D01*
X9585756Y-5654256D01*
X9585756Y-5908256D02*
X9585756Y-5837544D01*
X9515044Y-5837544D01*
X9515044Y-5908256D01*
X9585756Y-5908256D01*
X9585756Y-6162256D02*
X9585756Y-6091544D01*
X9515044Y-6091544D01*
X9515044Y-6162256D01*
X9585756Y-6162256D01*
X9585756Y-6416256D02*
X9585756Y-6345544D01*
X9515044Y-6345544D01*
X9515044Y-6416256D01*
X9585756Y-6416256D01*
X9585756Y-6670256D02*
X9585756Y-6599544D01*
X9515044Y-6599544D01*
X9515044Y-6670256D01*
X9585756Y-6670256D01*
X9585756Y-6924256D02*
X9585756Y-6853544D01*
X9515044Y-6853544D01*
X9515044Y-6924256D01*
X9585756Y-6924256D01*
X9585756Y-7178256D02*
X9585756Y-7107544D01*
X9515044Y-7107544D01*
X9515044Y-7178256D01*
X9585756Y-7178256D01*
X9585756Y-7432256D02*
X9585756Y-7361544D01*
X9515044Y-7361544D01*
X9515044Y-7432256D01*
X9585756Y-7432256D01*
X9585756Y-7686256D02*
X9585756Y-7615544D01*
X9515044Y-7615544D01*
X9515044Y-7686256D01*
X9585756Y-7686256D01*
X9585756Y-7940256D02*
X9585756Y-7869544D01*
X9515044Y-7869544D01*
X9515044Y-7940256D01*
X9585756Y-7940256D01*
X9585756Y-8194256D02*
X9585756Y-8123544D01*
X9515044Y-8123544D01*
X9515044Y-8194256D01*
X9585756Y-8194256D01*
X9585756Y-8448256D02*
X9585756Y-8377544D01*
X9515044Y-8377544D01*
X9515044Y-8448256D01*
X9585756Y-8448256D01*
X9585756Y-8702256D02*
X9585756Y-8631544D01*
X9515044Y-8631544D01*
X9515044Y-8702256D01*
X9585756Y-8702256D01*
X9585756Y-8956256D02*
X9585756Y-8885544D01*
X9515044Y-8885544D01*
X9515044Y-8956256D01*
X9585756Y-8956256D01*
D15*
X6406000Y-8758100D02*
X6461000Y-8703100D01*
X6406000Y-8648100D01*
X6351000Y-8703100D01*
X6406000Y-8758100D01*
X6406000Y-9208100D02*
X6461000Y-9153100D01*
X6406000Y-9098100D01*
X6351000Y-9153100D01*
X6406000Y-9208100D01*
X7056000Y-8758100D02*
X7111000Y-8703100D01*
X7056000Y-8648100D01*
X7001000Y-8703100D01*
X7056000Y-8758100D01*
X7056000Y-9208100D02*
X7111000Y-9153100D01*
X7056000Y-9098100D01*
X7001000Y-9153100D01*
X7056000Y-9208100D01*
D11*
X3039819Y-9705376D02*
X3039819Y-9505376D01*
X3087438Y-9505376D01*
X3116009Y-9514900D01*
X3135057Y-9533948D01*
X3144581Y-9552995D01*
X3154105Y-9591090D01*
X3154105Y-9619662D01*
X3144581Y-9657757D01*
X3135057Y-9676805D01*
X3116009Y-9695852D01*
X3087438Y-9705376D01*
X3039819Y-9705376D01*
X3239819Y-9705376D02*
X3239819Y-9572043D01*
X3239819Y-9610138D02*
X3249343Y-9591090D01*
X3258867Y-9581567D01*
X3277914Y-9572043D01*
X3296962Y-9572043D01*
X3363628Y-9705376D02*
X3363628Y-9572043D01*
X3363628Y-9505376D02*
X3354105Y-9514900D01*
X3363628Y-9524424D01*
X3373152Y-9514900D01*
X3363628Y-9505376D01*
X3363628Y-9524424D01*
X3487438Y-9705376D02*
X3468390Y-9695852D01*
X3458867Y-9676805D01*
X3458867Y-9505376D01*
X3592200Y-9705376D02*
X3573152Y-9695852D01*
X3563628Y-9676805D01*
X3563628Y-9505376D01*
X3820771Y-9705376D02*
X3820771Y-9505376D01*
X3887438Y-9648233D01*
X3954105Y-9505376D01*
X3954105Y-9705376D01*
X4135057Y-9705376D02*
X4135057Y-9600614D01*
X4125533Y-9581567D01*
X4106486Y-9572043D01*
X4068390Y-9572043D01*
X4049343Y-9581567D01*
X4135057Y-9695852D02*
X4116009Y-9705376D01*
X4068390Y-9705376D01*
X4049343Y-9695852D01*
X4039819Y-9676805D01*
X4039819Y-9657757D01*
X4049343Y-9638710D01*
X4068390Y-9629186D01*
X4116009Y-9629186D01*
X4135057Y-9619662D01*
X4230295Y-9572043D02*
X4230295Y-9772043D01*
X4230295Y-9581567D02*
X4249343Y-9572043D01*
X4287438Y-9572043D01*
X4306486Y-9581567D01*
X4316010Y-9591090D01*
X4325533Y-9610138D01*
X4325533Y-9667281D01*
X4316010Y-9686329D01*
X4306486Y-9695852D01*
X4287438Y-9705376D01*
X4249343Y-9705376D01*
X4230295Y-9695852D01*
X4411248Y-9686329D02*
X4420771Y-9695852D01*
X4411248Y-9705376D01*
X4401724Y-9695852D01*
X4411248Y-9686329D01*
X4411248Y-9705376D01*
X4411248Y-9581567D02*
X4420771Y-9591090D01*
X4411248Y-9600614D01*
X4401724Y-9591090D01*
X4411248Y-9581567D01*
X4411248Y-9600614D01*
D12*
X2752200Y-10019900D02*
X2782200Y-10049900D01*
X2782200Y-10019900D02*
X2752200Y-10049900D01*
D11*
X3077914Y-9925376D02*
X3096962Y-9925376D01*
X3116009Y-9934900D01*
X3125533Y-9944424D01*
X3135057Y-9963471D01*
X3144581Y-10001567D01*
X3144581Y-10049186D01*
X3135057Y-10087281D01*
X3125533Y-10106329D01*
X3116009Y-10115852D01*
X3096962Y-10125376D01*
X3077914Y-10125376D01*
X3058867Y-10115852D01*
X3049343Y-10106329D01*
X3039819Y-10087281D01*
X3030295Y-10049186D01*
X3030295Y-10001567D01*
X3039819Y-9963471D01*
X3049343Y-9944424D01*
X3058867Y-9934900D01*
X3077914Y-9925376D01*
X3230295Y-10106329D02*
X3239819Y-10115852D01*
X3230295Y-10125376D01*
X3220771Y-10115852D01*
X3230295Y-10106329D01*
X3230295Y-10125376D01*
X3306486Y-9925376D02*
X3430295Y-9925376D01*
X3363628Y-10001567D01*
X3392200Y-10001567D01*
X3411248Y-10011090D01*
X3420771Y-10020614D01*
X3430295Y-10039662D01*
X3430295Y-10087281D01*
X3420771Y-10106329D01*
X3411248Y-10115852D01*
X3392200Y-10125376D01*
X3335057Y-10125376D01*
X3316009Y-10115852D01*
X3306486Y-10106329D01*
X3554105Y-9925376D02*
X3573152Y-9925376D01*
X3592200Y-9934900D01*
X3601724Y-9944424D01*
X3611248Y-9963471D01*
X3620771Y-10001567D01*
X3620771Y-10049186D01*
X3611248Y-10087281D01*
X3601724Y-10106329D01*
X3592200Y-10115852D01*
X3573152Y-10125376D01*
X3554105Y-10125376D01*
X3535057Y-10115852D01*
X3525533Y-10106329D01*
X3516009Y-10087281D01*
X3506486Y-10049186D01*
X3506486Y-10001567D01*
X3516009Y-9963471D01*
X3525533Y-9944424D01*
X3535057Y-9934900D01*
X3554105Y-9925376D01*
X3744581Y-9925376D02*
X3763628Y-9925376D01*
X3782676Y-9934900D01*
X3792200Y-9944424D01*
X3801724Y-9963471D01*
X3811248Y-10001567D01*
X3811248Y-10049186D01*
X3801724Y-10087281D01*
X3792200Y-10106329D01*
X3782676Y-10115852D01*
X3763628Y-10125376D01*
X3744581Y-10125376D01*
X3725533Y-10115852D01*
X3716009Y-10106329D01*
X3706486Y-10087281D01*
X3696962Y-10049186D01*
X3696962Y-10001567D01*
X3706486Y-9963471D01*
X3716009Y-9944424D01*
X3725533Y-9934900D01*
X3744581Y-9925376D01*
X3896962Y-10125376D02*
X3896962Y-9992043D01*
X3896962Y-10011090D02*
X3906486Y-10001567D01*
X3925533Y-9992043D01*
X3954105Y-9992043D01*
X3973152Y-10001567D01*
X3982676Y-10020614D01*
X3982676Y-10125376D01*
X3982676Y-10020614D02*
X3992200Y-10001567D01*
X4011248Y-9992043D01*
X4039819Y-9992043D01*
X4058867Y-10001567D01*
X4068390Y-10020614D01*
X4068390Y-10125376D01*
X4163628Y-10125376D02*
X4163628Y-9992043D01*
X4163628Y-10011090D02*
X4173152Y-10001567D01*
X4192200Y-9992043D01*
X4220771Y-9992043D01*
X4239819Y-10001567D01*
X4249343Y-10020614D01*
X4249343Y-10125376D01*
X4249343Y-10020614D02*
X4258867Y-10001567D01*
X4277914Y-9992043D01*
X4306486Y-9992043D01*
X4325533Y-10001567D01*
X4335057Y-10020614D01*
X4335057Y-10125376D01*
X4725533Y-9915852D02*
X4554105Y-10172995D01*
X4982676Y-9925376D02*
X5001724Y-9925376D01*
X5020771Y-9934900D01*
X5030295Y-9944424D01*
X5039819Y-9963471D01*
X5049343Y-10001567D01*
X5049343Y-10049186D01*
X5039819Y-10087281D01*
X5030295Y-10106329D01*
X5020771Y-10115852D01*
X5001724Y-10125376D01*
X4982676Y-10125376D01*
X4963629Y-10115852D01*
X4954105Y-10106329D01*
X4944581Y-10087281D01*
X4935057Y-10049186D01*
X4935057Y-10001567D01*
X4944581Y-9963471D01*
X4954105Y-9944424D01*
X4963629Y-9934900D01*
X4982676Y-9925376D01*
X5135057Y-10106329D02*
X5144581Y-10115852D01*
X5135057Y-10125376D01*
X5125533Y-10115852D01*
X5135057Y-10106329D01*
X5135057Y-10125376D01*
X5268390Y-9925376D02*
X5287438Y-9925376D01*
X5306486Y-9934900D01*
X5316010Y-9944424D01*
X5325533Y-9963471D01*
X5335057Y-10001567D01*
X5335057Y-10049186D01*
X5325533Y-10087281D01*
X5316010Y-10106329D01*
X5306486Y-10115852D01*
X5287438Y-10125376D01*
X5268390Y-10125376D01*
X5249343Y-10115852D01*
X5239819Y-10106329D01*
X5230295Y-10087281D01*
X5220771Y-10049186D01*
X5220771Y-10001567D01*
X5230295Y-9963471D01*
X5239819Y-9944424D01*
X5249343Y-9934900D01*
X5268390Y-9925376D01*
X5525533Y-10125376D02*
X5411248Y-10125376D01*
X5468390Y-10125376D02*
X5468390Y-9925376D01*
X5449343Y-9953948D01*
X5430295Y-9972995D01*
X5411248Y-9982519D01*
X5716009Y-10125376D02*
X5601724Y-10125376D01*
X5658867Y-10125376D02*
X5658867Y-9925376D01*
X5639819Y-9953948D01*
X5620771Y-9972995D01*
X5601724Y-9982519D01*
X5830295Y-10011090D02*
X5811248Y-10001567D01*
X5801724Y-9992043D01*
X5792200Y-9972995D01*
X5792200Y-9963471D01*
X5801724Y-9944424D01*
X5811248Y-9934900D01*
X5830295Y-9925376D01*
X5868390Y-9925376D01*
X5887438Y-9934900D01*
X5896962Y-9944424D01*
X5906486Y-9963471D01*
X5906486Y-9972995D01*
X5896962Y-9992043D01*
X5887438Y-10001567D01*
X5868390Y-10011090D01*
X5830295Y-10011090D01*
X5811248Y-10020614D01*
X5801724Y-10030138D01*
X5792200Y-10049186D01*
X5792200Y-10087281D01*
X5801724Y-10106329D01*
X5811248Y-10115852D01*
X5830295Y-10125376D01*
X5868390Y-10125376D01*
X5887438Y-10115852D01*
X5896962Y-10106329D01*
X5906486Y-10087281D01*
X5906486Y-10049186D01*
X5896962Y-10030138D01*
X5887438Y-10020614D01*
X5868390Y-10011090D01*
X5982676Y-9925376D02*
X5982676Y-9963471D01*
X6058867Y-9925376D02*
X6058867Y-9963471D01*
X6354105Y-10201567D02*
X6344581Y-10192043D01*
X6325533Y-10163471D01*
X6316009Y-10144424D01*
X6306486Y-10115852D01*
X6296962Y-10068233D01*
X6296962Y-10030138D01*
X6306486Y-9982519D01*
X6316009Y-9953948D01*
X6325533Y-9934900D01*
X6344581Y-9906329D01*
X6354105Y-9896805D01*
X6420771Y-9944424D02*
X6430295Y-9934900D01*
X6449343Y-9925376D01*
X6496962Y-9925376D01*
X6516009Y-9934900D01*
X6525533Y-9944424D01*
X6535057Y-9963471D01*
X6535057Y-9982519D01*
X6525533Y-10011090D01*
X6411248Y-10125376D01*
X6535057Y-10125376D01*
X6649343Y-10011090D02*
X6630295Y-10001567D01*
X6620771Y-9992043D01*
X6611248Y-9972995D01*
X6611248Y-9963471D01*
X6620771Y-9944424D01*
X6630295Y-9934900D01*
X6649343Y-9925376D01*
X6687438Y-9925376D01*
X6706486Y-9934900D01*
X6716009Y-9944424D01*
X6725533Y-9963471D01*
X6725533Y-9972995D01*
X6716009Y-9992043D01*
X6706486Y-10001567D01*
X6687438Y-10011090D01*
X6649343Y-10011090D01*
X6630295Y-10020614D01*
X6620771Y-10030138D01*
X6611248Y-10049186D01*
X6611248Y-10087281D01*
X6620771Y-10106329D01*
X6630295Y-10115852D01*
X6649343Y-10125376D01*
X6687438Y-10125376D01*
X6706486Y-10115852D01*
X6716009Y-10106329D01*
X6725533Y-10087281D01*
X6725533Y-10049186D01*
X6716009Y-10030138D01*
X6706486Y-10020614D01*
X6687438Y-10011090D01*
X6963628Y-10125376D02*
X6963628Y-9925376D01*
X7049343Y-10125376D02*
X7049343Y-10020614D01*
X7039819Y-10001567D01*
X7020771Y-9992043D01*
X6992200Y-9992043D01*
X6973152Y-10001567D01*
X6963628Y-10011090D01*
X7173152Y-10125376D02*
X7154105Y-10115852D01*
X7144581Y-10106329D01*
X7135057Y-10087281D01*
X7135057Y-10030138D01*
X7144581Y-10011090D01*
X7154105Y-10001567D01*
X7173152Y-9992043D01*
X7201724Y-9992043D01*
X7220771Y-10001567D01*
X7230295Y-10011090D01*
X7239819Y-10030138D01*
X7239819Y-10087281D01*
X7230295Y-10106329D01*
X7220771Y-10115852D01*
X7201724Y-10125376D01*
X7173152Y-10125376D01*
X7354105Y-10125376D02*
X7335057Y-10115852D01*
X7325533Y-10096805D01*
X7325533Y-9925376D01*
X7506486Y-10115852D02*
X7487438Y-10125376D01*
X7449343Y-10125376D01*
X7430295Y-10115852D01*
X7420771Y-10096805D01*
X7420771Y-10020614D01*
X7430295Y-10001567D01*
X7449343Y-9992043D01*
X7487438Y-9992043D01*
X7506486Y-10001567D01*
X7516009Y-10020614D01*
X7516009Y-10039662D01*
X7420771Y-10058710D01*
X7592200Y-10115852D02*
X7611248Y-10125376D01*
X7649343Y-10125376D01*
X7668390Y-10115852D01*
X7677914Y-10096805D01*
X7677914Y-10087281D01*
X7668390Y-10068233D01*
X7649343Y-10058710D01*
X7620771Y-10058710D01*
X7601724Y-10049186D01*
X7592200Y-10030138D01*
X7592200Y-10020614D01*
X7601724Y-10001567D01*
X7620771Y-9992043D01*
X7649343Y-9992043D01*
X7668390Y-10001567D01*
X7744581Y-10201567D02*
X7754105Y-10192043D01*
X7773152Y-10163471D01*
X7782676Y-10144424D01*
X7792200Y-10115852D01*
X7801724Y-10068233D01*
X7801724Y-10030138D01*
X7792200Y-9982519D01*
X7782676Y-9953948D01*
X7773152Y-9934900D01*
X7754105Y-9906329D01*
X7744581Y-9896805D01*
D13*
X2782200Y-10298900D02*
G75*
G03*
X2782200Y-10298900I-25000J0D01*
G01*
D11*
X3077914Y-10189376D02*
X3096962Y-10189376D01*
X3116009Y-10198900D01*
X3125533Y-10208424D01*
X3135057Y-10227471D01*
X3144581Y-10265567D01*
X3144581Y-10313186D01*
X3135057Y-10351281D01*
X3125533Y-10370329D01*
X3116009Y-10379852D01*
X3096962Y-10389376D01*
X3077914Y-10389376D01*
X3058867Y-10379852D01*
X3049343Y-10370329D01*
X3039819Y-10351281D01*
X3030295Y-10313186D01*
X3030295Y-10265567D01*
X3039819Y-10227471D01*
X3049343Y-10208424D01*
X3058867Y-10198900D01*
X3077914Y-10189376D01*
X3230295Y-10370329D02*
X3239819Y-10379852D01*
X3230295Y-10389376D01*
X3220771Y-10379852D01*
X3230295Y-10370329D01*
X3230295Y-10389376D01*
X3420771Y-10189376D02*
X3325533Y-10189376D01*
X3316009Y-10284614D01*
X3325533Y-10275090D01*
X3344581Y-10265567D01*
X3392200Y-10265567D01*
X3411248Y-10275090D01*
X3420771Y-10284614D01*
X3430295Y-10303662D01*
X3430295Y-10351281D01*
X3420771Y-10370329D01*
X3411248Y-10379852D01*
X3392200Y-10389376D01*
X3344581Y-10389376D01*
X3325533Y-10379852D01*
X3316009Y-10370329D01*
X3554105Y-10189376D02*
X3573152Y-10189376D01*
X3592200Y-10198900D01*
X3601724Y-10208424D01*
X3611248Y-10227471D01*
X3620771Y-10265567D01*
X3620771Y-10313186D01*
X3611248Y-10351281D01*
X3601724Y-10370329D01*
X3592200Y-10379852D01*
X3573152Y-10389376D01*
X3554105Y-10389376D01*
X3535057Y-10379852D01*
X3525533Y-10370329D01*
X3516009Y-10351281D01*
X3506486Y-10313186D01*
X3506486Y-10265567D01*
X3516009Y-10227471D01*
X3525533Y-10208424D01*
X3535057Y-10198900D01*
X3554105Y-10189376D01*
X3744581Y-10189376D02*
X3763628Y-10189376D01*
X3782676Y-10198900D01*
X3792200Y-10208424D01*
X3801724Y-10227471D01*
X3811248Y-10265567D01*
X3811248Y-10313186D01*
X3801724Y-10351281D01*
X3792200Y-10370329D01*
X3782676Y-10379852D01*
X3763628Y-10389376D01*
X3744581Y-10389376D01*
X3725533Y-10379852D01*
X3716009Y-10370329D01*
X3706486Y-10351281D01*
X3696962Y-10313186D01*
X3696962Y-10265567D01*
X3706486Y-10227471D01*
X3716009Y-10208424D01*
X3725533Y-10198900D01*
X3744581Y-10189376D01*
X3896962Y-10389376D02*
X3896962Y-10256043D01*
X3896962Y-10275090D02*
X3906486Y-10265567D01*
X3925533Y-10256043D01*
X3954105Y-10256043D01*
X3973152Y-10265567D01*
X3982676Y-10284614D01*
X3982676Y-10389376D01*
X3982676Y-10284614D02*
X3992200Y-10265567D01*
X4011248Y-10256043D01*
X4039819Y-10256043D01*
X4058867Y-10265567D01*
X4068390Y-10284614D01*
X4068390Y-10389376D01*
X4163628Y-10389376D02*
X4163628Y-10256043D01*
X4163628Y-10275090D02*
X4173152Y-10265567D01*
X4192200Y-10256043D01*
X4220771Y-10256043D01*
X4239819Y-10265567D01*
X4249343Y-10284614D01*
X4249343Y-10389376D01*
X4249343Y-10284614D02*
X4258867Y-10265567D01*
X4277914Y-10256043D01*
X4306486Y-10256043D01*
X4325533Y-10265567D01*
X4335057Y-10284614D01*
X4335057Y-10389376D01*
X4725533Y-10179852D02*
X4554105Y-10436995D01*
X4982676Y-10189376D02*
X5001724Y-10189376D01*
X5020771Y-10198900D01*
X5030295Y-10208424D01*
X5039819Y-10227471D01*
X5049343Y-10265567D01*
X5049343Y-10313186D01*
X5039819Y-10351281D01*
X5030295Y-10370329D01*
X5020771Y-10379852D01*
X5001724Y-10389376D01*
X4982676Y-10389376D01*
X4963629Y-10379852D01*
X4954105Y-10370329D01*
X4944581Y-10351281D01*
X4935057Y-10313186D01*
X4935057Y-10265567D01*
X4944581Y-10227471D01*
X4954105Y-10208424D01*
X4963629Y-10198900D01*
X4982676Y-10189376D01*
X5135057Y-10370329D02*
X5144581Y-10379852D01*
X5135057Y-10389376D01*
X5125533Y-10379852D01*
X5135057Y-10370329D01*
X5135057Y-10389376D01*
X5268390Y-10189376D02*
X5287438Y-10189376D01*
X5306486Y-10198900D01*
X5316010Y-10208424D01*
X5325533Y-10227471D01*
X5335057Y-10265567D01*
X5335057Y-10313186D01*
X5325533Y-10351281D01*
X5316010Y-10370329D01*
X5306486Y-10379852D01*
X5287438Y-10389376D01*
X5268390Y-10389376D01*
X5249343Y-10379852D01*
X5239819Y-10370329D01*
X5230295Y-10351281D01*
X5220771Y-10313186D01*
X5220771Y-10265567D01*
X5230295Y-10227471D01*
X5239819Y-10208424D01*
X5249343Y-10198900D01*
X5268390Y-10189376D01*
X5525533Y-10389376D02*
X5411248Y-10389376D01*
X5468390Y-10389376D02*
X5468390Y-10189376D01*
X5449343Y-10217948D01*
X5430295Y-10236995D01*
X5411248Y-10246519D01*
X5620771Y-10389376D02*
X5658867Y-10389376D01*
X5677914Y-10379852D01*
X5687438Y-10370329D01*
X5706486Y-10341757D01*
X5716009Y-10303662D01*
X5716009Y-10227471D01*
X5706486Y-10208424D01*
X5696962Y-10198900D01*
X5677914Y-10189376D01*
X5639819Y-10189376D01*
X5620771Y-10198900D01*
X5611248Y-10208424D01*
X5601724Y-10227471D01*
X5601724Y-10275090D01*
X5611248Y-10294138D01*
X5620771Y-10303662D01*
X5639819Y-10313186D01*
X5677914Y-10313186D01*
X5696962Y-10303662D01*
X5706486Y-10294138D01*
X5716009Y-10275090D01*
X5782676Y-10189376D02*
X5916009Y-10189376D01*
X5830295Y-10389376D01*
X5982676Y-10189376D02*
X5982676Y-10227471D01*
X6058867Y-10189376D02*
X6058867Y-10227471D01*
X6354105Y-10465567D02*
X6344581Y-10456043D01*
X6325533Y-10427471D01*
X6316009Y-10408424D01*
X6306486Y-10379852D01*
X6296962Y-10332233D01*
X6296962Y-10294138D01*
X6306486Y-10246519D01*
X6316009Y-10217948D01*
X6325533Y-10198900D01*
X6344581Y-10170329D01*
X6354105Y-10160805D01*
X6420771Y-10208424D02*
X6430295Y-10198900D01*
X6449343Y-10189376D01*
X6496962Y-10189376D01*
X6516009Y-10198900D01*
X6525533Y-10208424D01*
X6535057Y-10227471D01*
X6535057Y-10246519D01*
X6525533Y-10275090D01*
X6411248Y-10389376D01*
X6535057Y-10389376D01*
X6773152Y-10389376D02*
X6773152Y-10189376D01*
X6858867Y-10389376D02*
X6858867Y-10284614D01*
X6849343Y-10265567D01*
X6830295Y-10256043D01*
X6801724Y-10256043D01*
X6782676Y-10265567D01*
X6773152Y-10275090D01*
X6982676Y-10389376D02*
X6963628Y-10379852D01*
X6954105Y-10370329D01*
X6944581Y-10351281D01*
X6944581Y-10294138D01*
X6954105Y-10275090D01*
X6963628Y-10265567D01*
X6982676Y-10256043D01*
X7011248Y-10256043D01*
X7030295Y-10265567D01*
X7039819Y-10275090D01*
X7049343Y-10294138D01*
X7049343Y-10351281D01*
X7039819Y-10370329D01*
X7030295Y-10379852D01*
X7011248Y-10389376D01*
X6982676Y-10389376D01*
X7163628Y-10389376D02*
X7144581Y-10379852D01*
X7135057Y-10360805D01*
X7135057Y-10189376D01*
X7316009Y-10379852D02*
X7296962Y-10389376D01*
X7258867Y-10389376D01*
X7239819Y-10379852D01*
X7230295Y-10360805D01*
X7230295Y-10284614D01*
X7239819Y-10265567D01*
X7258867Y-10256043D01*
X7296962Y-10256043D01*
X7316009Y-10265567D01*
X7325533Y-10284614D01*
X7325533Y-10303662D01*
X7230295Y-10322710D01*
X7401724Y-10379852D02*
X7420771Y-10389376D01*
X7458867Y-10389376D01*
X7477914Y-10379852D01*
X7487438Y-10360805D01*
X7487438Y-10351281D01*
X7477914Y-10332233D01*
X7458867Y-10322710D01*
X7430295Y-10322710D01*
X7411248Y-10313186D01*
X7401724Y-10294138D01*
X7401724Y-10284614D01*
X7411248Y-10265567D01*
X7430295Y-10256043D01*
X7458867Y-10256043D01*
X7477914Y-10265567D01*
X7554105Y-10465567D02*
X7563628Y-10456043D01*
X7582676Y-10427471D01*
X7592200Y-10408424D01*
X7601724Y-10379852D01*
X7611248Y-10332233D01*
X7611248Y-10294138D01*
X7601724Y-10246519D01*
X7592200Y-10217948D01*
X7582676Y-10198900D01*
X7563628Y-10170329D01*
X7554105Y-10160805D01*
D14*
X2742200Y-10522900D02*
X2742200Y-10602900D01*
X2702200Y-10562900D02*
X2782200Y-10562900D01*
D11*
X3077914Y-10453376D02*
X3096962Y-10453376D01*
X3116009Y-10462900D01*
X3125533Y-10472424D01*
X3135057Y-10491471D01*
X3144581Y-10529567D01*
X3144581Y-10577186D01*
X3135057Y-10615281D01*
X3125533Y-10634329D01*
X3116009Y-10643852D01*
X3096962Y-10653376D01*
X3077914Y-10653376D01*
X3058867Y-10643852D01*
X3049343Y-10634329D01*
X3039819Y-10615281D01*
X3030295Y-10577186D01*
X3030295Y-10529567D01*
X3039819Y-10491471D01*
X3049343Y-10472424D01*
X3058867Y-10462900D01*
X3077914Y-10453376D01*
X3230295Y-10634329D02*
X3239819Y-10643852D01*
X3230295Y-10653376D01*
X3220771Y-10643852D01*
X3230295Y-10634329D01*
X3230295Y-10653376D01*
X3354105Y-10539090D02*
X3335057Y-10529567D01*
X3325533Y-10520043D01*
X3316009Y-10500995D01*
X3316009Y-10491471D01*
X3325533Y-10472424D01*
X3335057Y-10462900D01*
X3354105Y-10453376D01*
X3392200Y-10453376D01*
X3411248Y-10462900D01*
X3420771Y-10472424D01*
X3430295Y-10491471D01*
X3430295Y-10500995D01*
X3420771Y-10520043D01*
X3411248Y-10529567D01*
X3392200Y-10539090D01*
X3354105Y-10539090D01*
X3335057Y-10548614D01*
X3325533Y-10558138D01*
X3316009Y-10577186D01*
X3316009Y-10615281D01*
X3325533Y-10634329D01*
X3335057Y-10643852D01*
X3354105Y-10653376D01*
X3392200Y-10653376D01*
X3411248Y-10643852D01*
X3420771Y-10634329D01*
X3430295Y-10615281D01*
X3430295Y-10577186D01*
X3420771Y-10558138D01*
X3411248Y-10548614D01*
X3392200Y-10539090D01*
X3554105Y-10453376D02*
X3573152Y-10453376D01*
X3592200Y-10462900D01*
X3601724Y-10472424D01*
X3611248Y-10491471D01*
X3620771Y-10529567D01*
X3620771Y-10577186D01*
X3611248Y-10615281D01*
X3601724Y-10634329D01*
X3592200Y-10643852D01*
X3573152Y-10653376D01*
X3554105Y-10653376D01*
X3535057Y-10643852D01*
X3525533Y-10634329D01*
X3516009Y-10615281D01*
X3506486Y-10577186D01*
X3506486Y-10529567D01*
X3516009Y-10491471D01*
X3525533Y-10472424D01*
X3535057Y-10462900D01*
X3554105Y-10453376D01*
X3744581Y-10453376D02*
X3763628Y-10453376D01*
X3782676Y-10462900D01*
X3792200Y-10472424D01*
X3801724Y-10491471D01*
X3811248Y-10529567D01*
X3811248Y-10577186D01*
X3801724Y-10615281D01*
X3792200Y-10634329D01*
X3782676Y-10643852D01*
X3763628Y-10653376D01*
X3744581Y-10653376D01*
X3725533Y-10643852D01*
X3716009Y-10634329D01*
X3706486Y-10615281D01*
X3696962Y-10577186D01*
X3696962Y-10529567D01*
X3706486Y-10491471D01*
X3716009Y-10472424D01*
X3725533Y-10462900D01*
X3744581Y-10453376D01*
X3896962Y-10653376D02*
X3896962Y-10520043D01*
X3896962Y-10539090D02*
X3906486Y-10529567D01*
X3925533Y-10520043D01*
X3954105Y-10520043D01*
X3973152Y-10529567D01*
X3982676Y-10548614D01*
X3982676Y-10653376D01*
X3982676Y-10548614D02*
X3992200Y-10529567D01*
X4011248Y-10520043D01*
X4039819Y-10520043D01*
X4058867Y-10529567D01*
X4068390Y-10548614D01*
X4068390Y-10653376D01*
X4163628Y-10653376D02*
X4163628Y-10520043D01*
X4163628Y-10539090D02*
X4173152Y-10529567D01*
X4192200Y-10520043D01*
X4220771Y-10520043D01*
X4239819Y-10529567D01*
X4249343Y-10548614D01*
X4249343Y-10653376D01*
X4249343Y-10548614D02*
X4258867Y-10529567D01*
X4277914Y-10520043D01*
X4306486Y-10520043D01*
X4325533Y-10529567D01*
X4335057Y-10548614D01*
X4335057Y-10653376D01*
X4725533Y-10443852D02*
X4554105Y-10700995D01*
X4982676Y-10453376D02*
X5001724Y-10453376D01*
X5020771Y-10462900D01*
X5030295Y-10472424D01*
X5039819Y-10491471D01*
X5049343Y-10529567D01*
X5049343Y-10577186D01*
X5039819Y-10615281D01*
X5030295Y-10634329D01*
X5020771Y-10643852D01*
X5001724Y-10653376D01*
X4982676Y-10653376D01*
X4963629Y-10643852D01*
X4954105Y-10634329D01*
X4944581Y-10615281D01*
X4935057Y-10577186D01*
X4935057Y-10529567D01*
X4944581Y-10491471D01*
X4954105Y-10472424D01*
X4963629Y-10462900D01*
X4982676Y-10453376D01*
X5135057Y-10634329D02*
X5144581Y-10643852D01*
X5135057Y-10653376D01*
X5125533Y-10643852D01*
X5135057Y-10634329D01*
X5135057Y-10653376D01*
X5268390Y-10453376D02*
X5287438Y-10453376D01*
X5306486Y-10462900D01*
X5316010Y-10472424D01*
X5325533Y-10491471D01*
X5335057Y-10529567D01*
X5335057Y-10577186D01*
X5325533Y-10615281D01*
X5316010Y-10634329D01*
X5306486Y-10643852D01*
X5287438Y-10653376D01*
X5268390Y-10653376D01*
X5249343Y-10643852D01*
X5239819Y-10634329D01*
X5230295Y-10615281D01*
X5220771Y-10577186D01*
X5220771Y-10529567D01*
X5230295Y-10491471D01*
X5239819Y-10472424D01*
X5249343Y-10462900D01*
X5268390Y-10453376D01*
X5401724Y-10453376D02*
X5525533Y-10453376D01*
X5458867Y-10529567D01*
X5487438Y-10529567D01*
X5506486Y-10539090D01*
X5516010Y-10548614D01*
X5525533Y-10567662D01*
X5525533Y-10615281D01*
X5516010Y-10634329D01*
X5506486Y-10643852D01*
X5487438Y-10653376D01*
X5430295Y-10653376D01*
X5411248Y-10643852D01*
X5401724Y-10634329D01*
X5716009Y-10653376D02*
X5601724Y-10653376D01*
X5658867Y-10653376D02*
X5658867Y-10453376D01*
X5639819Y-10481948D01*
X5620771Y-10500995D01*
X5601724Y-10510519D01*
X5896962Y-10453376D02*
X5801724Y-10453376D01*
X5792200Y-10548614D01*
X5801724Y-10539090D01*
X5820771Y-10529567D01*
X5868390Y-10529567D01*
X5887438Y-10539090D01*
X5896962Y-10548614D01*
X5906486Y-10567662D01*
X5906486Y-10615281D01*
X5896962Y-10634329D01*
X5887438Y-10643852D01*
X5868390Y-10653376D01*
X5820771Y-10653376D01*
X5801724Y-10643852D01*
X5792200Y-10634329D01*
X5982676Y-10453376D02*
X5982676Y-10491471D01*
X6058867Y-10453376D02*
X6058867Y-10491471D01*
X6354105Y-10729567D02*
X6344581Y-10720043D01*
X6325533Y-10691471D01*
X6316009Y-10672424D01*
X6306486Y-10643852D01*
X6296962Y-10596233D01*
X6296962Y-10558138D01*
X6306486Y-10510519D01*
X6316009Y-10481948D01*
X6325533Y-10462900D01*
X6344581Y-10434329D01*
X6354105Y-10424805D01*
X6411248Y-10453376D02*
X6544581Y-10453376D01*
X6458867Y-10653376D01*
X6706486Y-10520043D02*
X6706486Y-10653376D01*
X6658867Y-10443852D02*
X6611248Y-10586710D01*
X6735057Y-10586710D01*
X6963628Y-10653376D02*
X6963628Y-10453376D01*
X7049343Y-10653376D02*
X7049343Y-10548614D01*
X7039819Y-10529567D01*
X7020771Y-10520043D01*
X6992200Y-10520043D01*
X6973152Y-10529567D01*
X6963628Y-10539090D01*
X7173152Y-10653376D02*
X7154105Y-10643852D01*
X7144581Y-10634329D01*
X7135057Y-10615281D01*
X7135057Y-10558138D01*
X7144581Y-10539090D01*
X7154105Y-10529567D01*
X7173152Y-10520043D01*
X7201724Y-10520043D01*
X7220771Y-10529567D01*
X7230295Y-10539090D01*
X7239819Y-10558138D01*
X7239819Y-10615281D01*
X7230295Y-10634329D01*
X7220771Y-10643852D01*
X7201724Y-10653376D01*
X7173152Y-10653376D01*
X7354105Y-10653376D02*
X7335057Y-10643852D01*
X7325533Y-10624805D01*
X7325533Y-10453376D01*
X7506486Y-10643852D02*
X7487438Y-10653376D01*
X7449343Y-10653376D01*
X7430295Y-10643852D01*
X7420771Y-10624805D01*
X7420771Y-10548614D01*
X7430295Y-10529567D01*
X7449343Y-10520043D01*
X7487438Y-10520043D01*
X7506486Y-10529567D01*
X7516009Y-10548614D01*
X7516009Y-10567662D01*
X7420771Y-10586710D01*
X7592200Y-10643852D02*
X7611248Y-10653376D01*
X7649343Y-10653376D01*
X7668390Y-10643852D01*
X7677914Y-10624805D01*
X7677914Y-10615281D01*
X7668390Y-10596233D01*
X7649343Y-10586710D01*
X7620771Y-10586710D01*
X7601724Y-10577186D01*
X7592200Y-10558138D01*
X7592200Y-10548614D01*
X7601724Y-10529567D01*
X7620771Y-10520043D01*
X7649343Y-10520043D01*
X7668390Y-10529567D01*
X7744581Y-10729567D02*
X7754105Y-10720043D01*
X7773152Y-10691471D01*
X7782676Y-10672424D01*
X7792200Y-10643852D01*
X7801724Y-10596233D01*
X7801724Y-10558138D01*
X7792200Y-10510519D01*
X7782676Y-10481948D01*
X7773152Y-10462900D01*
X7754105Y-10434329D01*
X7744581Y-10424805D01*
D10*
X2767556Y-10862256D02*
X2767556Y-10791544D01*
X2696844Y-10791544D01*
X2696844Y-10862256D01*
X2767556Y-10862256D01*
D11*
X3144581Y-10917376D02*
X3030295Y-10917376D01*
X3087438Y-10917376D02*
X3087438Y-10717376D01*
X3068390Y-10745948D01*
X3049343Y-10764995D01*
X3030295Y-10774519D01*
X3230295Y-10898329D02*
X3239819Y-10907852D01*
X3230295Y-10917376D01*
X3220771Y-10907852D01*
X3230295Y-10898329D01*
X3230295Y-10917376D01*
X3363628Y-10717376D02*
X3382676Y-10717376D01*
X3401724Y-10726900D01*
X3411248Y-10736424D01*
X3420771Y-10755471D01*
X3430295Y-10793567D01*
X3430295Y-10841186D01*
X3420771Y-10879281D01*
X3411248Y-10898329D01*
X3401724Y-10907852D01*
X3382676Y-10917376D01*
X3363628Y-10917376D01*
X3344581Y-10907852D01*
X3335057Y-10898329D01*
X3325533Y-10879281D01*
X3316009Y-10841186D01*
X3316009Y-10793567D01*
X3325533Y-10755471D01*
X3335057Y-10736424D01*
X3344581Y-10726900D01*
X3363628Y-10717376D01*
X3554105Y-10717376D02*
X3573152Y-10717376D01*
X3592200Y-10726900D01*
X3601724Y-10736424D01*
X3611248Y-10755471D01*
X3620771Y-10793567D01*
X3620771Y-10841186D01*
X3611248Y-10879281D01*
X3601724Y-10898329D01*
X3592200Y-10907852D01*
X3573152Y-10917376D01*
X3554105Y-10917376D01*
X3535057Y-10907852D01*
X3525533Y-10898329D01*
X3516009Y-10879281D01*
X3506486Y-10841186D01*
X3506486Y-10793567D01*
X3516009Y-10755471D01*
X3525533Y-10736424D01*
X3535057Y-10726900D01*
X3554105Y-10717376D01*
X3744581Y-10717376D02*
X3763628Y-10717376D01*
X3782676Y-10726900D01*
X3792200Y-10736424D01*
X3801724Y-10755471D01*
X3811248Y-10793567D01*
X3811248Y-10841186D01*
X3801724Y-10879281D01*
X3792200Y-10898329D01*
X3782676Y-10907852D01*
X3763628Y-10917376D01*
X3744581Y-10917376D01*
X3725533Y-10907852D01*
X3716009Y-10898329D01*
X3706486Y-10879281D01*
X3696962Y-10841186D01*
X3696962Y-10793567D01*
X3706486Y-10755471D01*
X3716009Y-10736424D01*
X3725533Y-10726900D01*
X3744581Y-10717376D01*
X3896962Y-10917376D02*
X3896962Y-10784043D01*
X3896962Y-10803090D02*
X3906486Y-10793567D01*
X3925533Y-10784043D01*
X3954105Y-10784043D01*
X3973152Y-10793567D01*
X3982676Y-10812614D01*
X3982676Y-10917376D01*
X3982676Y-10812614D02*
X3992200Y-10793567D01*
X4011248Y-10784043D01*
X4039819Y-10784043D01*
X4058867Y-10793567D01*
X4068390Y-10812614D01*
X4068390Y-10917376D01*
X4163628Y-10917376D02*
X4163628Y-10784043D01*
X4163628Y-10803090D02*
X4173152Y-10793567D01*
X4192200Y-10784043D01*
X4220771Y-10784043D01*
X4239819Y-10793567D01*
X4249343Y-10812614D01*
X4249343Y-10917376D01*
X4249343Y-10812614D02*
X4258867Y-10793567D01*
X4277914Y-10784043D01*
X4306486Y-10784043D01*
X4325533Y-10793567D01*
X4335057Y-10812614D01*
X4335057Y-10917376D01*
X4725533Y-10707852D02*
X4554105Y-10964995D01*
X4982676Y-10717376D02*
X5001724Y-10717376D01*
X5020771Y-10726900D01*
X5030295Y-10736424D01*
X5039819Y-10755471D01*
X5049343Y-10793567D01*
X5049343Y-10841186D01*
X5039819Y-10879281D01*
X5030295Y-10898329D01*
X5020771Y-10907852D01*
X5001724Y-10917376D01*
X4982676Y-10917376D01*
X4963629Y-10907852D01*
X4954105Y-10898329D01*
X4944581Y-10879281D01*
X4935057Y-10841186D01*
X4935057Y-10793567D01*
X4944581Y-10755471D01*
X4954105Y-10736424D01*
X4963629Y-10726900D01*
X4982676Y-10717376D01*
X5135057Y-10898329D02*
X5144581Y-10907852D01*
X5135057Y-10917376D01*
X5125533Y-10907852D01*
X5135057Y-10898329D01*
X5135057Y-10917376D01*
X5268390Y-10717376D02*
X5287438Y-10717376D01*
X5306486Y-10726900D01*
X5316010Y-10736424D01*
X5325533Y-10755471D01*
X5335057Y-10793567D01*
X5335057Y-10841186D01*
X5325533Y-10879281D01*
X5316010Y-10898329D01*
X5306486Y-10907852D01*
X5287438Y-10917376D01*
X5268390Y-10917376D01*
X5249343Y-10907852D01*
X5239819Y-10898329D01*
X5230295Y-10879281D01*
X5220771Y-10841186D01*
X5220771Y-10793567D01*
X5230295Y-10755471D01*
X5239819Y-10736424D01*
X5249343Y-10726900D01*
X5268390Y-10717376D01*
X5401724Y-10717376D02*
X5525533Y-10717376D01*
X5458867Y-10793567D01*
X5487438Y-10793567D01*
X5506486Y-10803090D01*
X5516010Y-10812614D01*
X5525533Y-10831662D01*
X5525533Y-10879281D01*
X5516010Y-10898329D01*
X5506486Y-10907852D01*
X5487438Y-10917376D01*
X5430295Y-10917376D01*
X5411248Y-10907852D01*
X5401724Y-10898329D01*
X5620771Y-10917376D02*
X5658867Y-10917376D01*
X5677914Y-10907852D01*
X5687438Y-10898329D01*
X5706486Y-10869757D01*
X5716009Y-10831662D01*
X5716009Y-10755471D01*
X5706486Y-10736424D01*
X5696962Y-10726900D01*
X5677914Y-10717376D01*
X5639819Y-10717376D01*
X5620771Y-10726900D01*
X5611248Y-10736424D01*
X5601724Y-10755471D01*
X5601724Y-10803090D01*
X5611248Y-10822138D01*
X5620771Y-10831662D01*
X5639819Y-10841186D01*
X5677914Y-10841186D01*
X5696962Y-10831662D01*
X5706486Y-10822138D01*
X5716009Y-10803090D01*
X5887438Y-10784043D02*
X5887438Y-10917376D01*
X5839819Y-10707852D02*
X5792200Y-10850710D01*
X5916009Y-10850710D01*
X5982676Y-10717376D02*
X5982676Y-10755471D01*
X6058867Y-10717376D02*
X6058867Y-10755471D01*
X6354105Y-10993567D02*
X6344581Y-10984043D01*
X6325533Y-10955471D01*
X6316009Y-10936424D01*
X6306486Y-10907852D01*
X6296962Y-10860233D01*
X6296962Y-10822138D01*
X6306486Y-10774519D01*
X6316009Y-10745948D01*
X6325533Y-10726900D01*
X6344581Y-10698329D01*
X6354105Y-10688805D01*
X6516009Y-10784043D02*
X6516009Y-10917376D01*
X6468390Y-10707852D02*
X6420771Y-10850710D01*
X6544581Y-10850710D01*
X6658867Y-10717376D02*
X6677914Y-10717376D01*
X6696962Y-10726900D01*
X6706486Y-10736424D01*
X6716009Y-10755471D01*
X6725533Y-10793567D01*
X6725533Y-10841186D01*
X6716009Y-10879281D01*
X6706486Y-10898329D01*
X6696962Y-10907852D01*
X6677914Y-10917376D01*
X6658867Y-10917376D01*
X6639819Y-10907852D01*
X6630295Y-10898329D01*
X6620771Y-10879281D01*
X6611248Y-10841186D01*
X6611248Y-10793567D01*
X6620771Y-10755471D01*
X6630295Y-10736424D01*
X6639819Y-10726900D01*
X6658867Y-10717376D01*
X6963628Y-10917376D02*
X6963628Y-10717376D01*
X7049343Y-10917376D02*
X7049343Y-10812614D01*
X7039819Y-10793567D01*
X7020771Y-10784043D01*
X6992200Y-10784043D01*
X6973152Y-10793567D01*
X6963628Y-10803090D01*
X7173152Y-10917376D02*
X7154105Y-10907852D01*
X7144581Y-10898329D01*
X7135057Y-10879281D01*
X7135057Y-10822138D01*
X7144581Y-10803090D01*
X7154105Y-10793567D01*
X7173152Y-10784043D01*
X7201724Y-10784043D01*
X7220771Y-10793567D01*
X7230295Y-10803090D01*
X7239819Y-10822138D01*
X7239819Y-10879281D01*
X7230295Y-10898329D01*
X7220771Y-10907852D01*
X7201724Y-10917376D01*
X7173152Y-10917376D01*
X7354105Y-10917376D02*
X7335057Y-10907852D01*
X7325533Y-10888805D01*
X7325533Y-10717376D01*
X7506486Y-10907852D02*
X7487438Y-10917376D01*
X7449343Y-10917376D01*
X7430295Y-10907852D01*
X7420771Y-10888805D01*
X7420771Y-10812614D01*
X7430295Y-10793567D01*
X7449343Y-10784043D01*
X7487438Y-10784043D01*
X7506486Y-10793567D01*
X7516009Y-10812614D01*
X7516009Y-10831662D01*
X7420771Y-10850710D01*
X7592200Y-10907852D02*
X7611248Y-10917376D01*
X7649343Y-10917376D01*
X7668390Y-10907852D01*
X7677914Y-10888805D01*
X7677914Y-10879281D01*
X7668390Y-10860233D01*
X7649343Y-10850710D01*
X7620771Y-10850710D01*
X7601724Y-10841186D01*
X7592200Y-10822138D01*
X7592200Y-10812614D01*
X7601724Y-10793567D01*
X7620771Y-10784043D01*
X7649343Y-10784043D01*
X7668390Y-10793567D01*
X7744581Y-10993567D02*
X7754105Y-10984043D01*
X7773152Y-10955471D01*
X7782676Y-10936424D01*
X7792200Y-10907852D01*
X7801724Y-10860233D01*
X7801724Y-10822138D01*
X7792200Y-10774519D01*
X7782676Y-10745948D01*
X7773152Y-10726900D01*
X7754105Y-10698329D01*
X7744581Y-10688805D01*
D15*
X2727200Y-11145900D02*
X2782200Y-11090900D01*
X2727200Y-11035900D01*
X2672200Y-11090900D01*
X2727200Y-11145900D01*
D11*
X3144581Y-11181376D02*
X3030295Y-11181376D01*
X3087438Y-11181376D02*
X3087438Y-10981376D01*
X3068390Y-11009948D01*
X3049343Y-11028995D01*
X3030295Y-11038519D01*
X3230295Y-11162329D02*
X3239819Y-11171852D01*
X3230295Y-11181376D01*
X3220771Y-11171852D01*
X3230295Y-11162329D01*
X3230295Y-11181376D01*
X3430295Y-11181376D02*
X3316009Y-11181376D01*
X3373152Y-11181376D02*
X3373152Y-10981376D01*
X3354105Y-11009948D01*
X3335057Y-11028995D01*
X3316009Y-11038519D01*
X3554105Y-10981376D02*
X3573152Y-10981376D01*
X3592200Y-10990900D01*
X3601724Y-11000424D01*
X3611248Y-11019471D01*
X3620771Y-11057567D01*
X3620771Y-11105186D01*
X3611248Y-11143281D01*
X3601724Y-11162329D01*
X3592200Y-11171852D01*
X3573152Y-11181376D01*
X3554105Y-11181376D01*
X3535057Y-11171852D01*
X3525533Y-11162329D01*
X3516009Y-11143281D01*
X3506486Y-11105186D01*
X3506486Y-11057567D01*
X3516009Y-11019471D01*
X3525533Y-11000424D01*
X3535057Y-10990900D01*
X3554105Y-10981376D01*
X3744581Y-10981376D02*
X3763628Y-10981376D01*
X3782676Y-10990900D01*
X3792200Y-11000424D01*
X3801724Y-11019471D01*
X3811248Y-11057567D01*
X3811248Y-11105186D01*
X3801724Y-11143281D01*
X3792200Y-11162329D01*
X3782676Y-11171852D01*
X3763628Y-11181376D01*
X3744581Y-11181376D01*
X3725533Y-11171852D01*
X3716009Y-11162329D01*
X3706486Y-11143281D01*
X3696962Y-11105186D01*
X3696962Y-11057567D01*
X3706486Y-11019471D01*
X3716009Y-11000424D01*
X3725533Y-10990900D01*
X3744581Y-10981376D01*
X3896962Y-11181376D02*
X3896962Y-11048043D01*
X3896962Y-11067090D02*
X3906486Y-11057567D01*
X3925533Y-11048043D01*
X3954105Y-11048043D01*
X3973152Y-11057567D01*
X3982676Y-11076614D01*
X3982676Y-11181376D01*
X3982676Y-11076614D02*
X3992200Y-11057567D01*
X4011248Y-11048043D01*
X4039819Y-11048043D01*
X4058867Y-11057567D01*
X4068390Y-11076614D01*
X4068390Y-11181376D01*
X4163628Y-11181376D02*
X4163628Y-11048043D01*
X4163628Y-11067090D02*
X4173152Y-11057567D01*
X4192200Y-11048043D01*
X4220771Y-11048043D01*
X4239819Y-11057567D01*
X4249343Y-11076614D01*
X4249343Y-11181376D01*
X4249343Y-11076614D02*
X4258867Y-11057567D01*
X4277914Y-11048043D01*
X4306486Y-11048043D01*
X4325533Y-11057567D01*
X4335057Y-11076614D01*
X4335057Y-11181376D01*
X4725533Y-10971852D02*
X4554105Y-11228995D01*
X4982676Y-10981376D02*
X5001724Y-10981376D01*
X5020771Y-10990900D01*
X5030295Y-11000424D01*
X5039819Y-11019471D01*
X5049343Y-11057567D01*
X5049343Y-11105186D01*
X5039819Y-11143281D01*
X5030295Y-11162329D01*
X5020771Y-11171852D01*
X5001724Y-11181376D01*
X4982676Y-11181376D01*
X4963629Y-11171852D01*
X4954105Y-11162329D01*
X4944581Y-11143281D01*
X4935057Y-11105186D01*
X4935057Y-11057567D01*
X4944581Y-11019471D01*
X4954105Y-11000424D01*
X4963629Y-10990900D01*
X4982676Y-10981376D01*
X5135057Y-11162329D02*
X5144581Y-11171852D01*
X5135057Y-11181376D01*
X5125533Y-11171852D01*
X5135057Y-11162329D01*
X5135057Y-11181376D01*
X5268390Y-10981376D02*
X5287438Y-10981376D01*
X5306486Y-10990900D01*
X5316010Y-11000424D01*
X5325533Y-11019471D01*
X5335057Y-11057567D01*
X5335057Y-11105186D01*
X5325533Y-11143281D01*
X5316010Y-11162329D01*
X5306486Y-11171852D01*
X5287438Y-11181376D01*
X5268390Y-11181376D01*
X5249343Y-11171852D01*
X5239819Y-11162329D01*
X5230295Y-11143281D01*
X5220771Y-11105186D01*
X5220771Y-11057567D01*
X5230295Y-11019471D01*
X5239819Y-11000424D01*
X5249343Y-10990900D01*
X5268390Y-10981376D01*
X5506486Y-11048043D02*
X5506486Y-11181376D01*
X5458867Y-10971852D02*
X5411248Y-11114710D01*
X5535057Y-11114710D01*
X5592200Y-10981376D02*
X5716009Y-10981376D01*
X5649343Y-11057567D01*
X5677914Y-11057567D01*
X5696962Y-11067090D01*
X5706486Y-11076614D01*
X5716009Y-11095662D01*
X5716009Y-11143281D01*
X5706486Y-11162329D01*
X5696962Y-11171852D01*
X5677914Y-11181376D01*
X5620771Y-11181376D01*
X5601724Y-11171852D01*
X5592200Y-11162329D01*
X5782676Y-10981376D02*
X5906486Y-10981376D01*
X5839819Y-11057567D01*
X5868390Y-11057567D01*
X5887438Y-11067090D01*
X5896962Y-11076614D01*
X5906486Y-11095662D01*
X5906486Y-11143281D01*
X5896962Y-11162329D01*
X5887438Y-11171852D01*
X5868390Y-11181376D01*
X5811248Y-11181376D01*
X5792200Y-11171852D01*
X5782676Y-11162329D01*
X5982676Y-10981376D02*
X5982676Y-11019471D01*
X6058867Y-10981376D02*
X6058867Y-11019471D01*
X6354105Y-11257567D02*
X6344581Y-11248043D01*
X6325533Y-11219471D01*
X6316009Y-11200424D01*
X6306486Y-11171852D01*
X6296962Y-11124233D01*
X6296962Y-11086138D01*
X6306486Y-11038519D01*
X6316009Y-11009948D01*
X6325533Y-10990900D01*
X6344581Y-10962329D01*
X6354105Y-10952805D01*
X6516009Y-11048043D02*
X6516009Y-11181376D01*
X6468390Y-10971852D02*
X6420771Y-11114710D01*
X6544581Y-11114710D01*
X6773152Y-11181376D02*
X6773152Y-10981376D01*
X6858867Y-11181376D02*
X6858867Y-11076614D01*
X6849343Y-11057567D01*
X6830295Y-11048043D01*
X6801724Y-11048043D01*
X6782676Y-11057567D01*
X6773152Y-11067090D01*
X6982676Y-11181376D02*
X6963628Y-11171852D01*
X6954105Y-11162329D01*
X6944581Y-11143281D01*
X6944581Y-11086138D01*
X6954105Y-11067090D01*
X6963628Y-11057567D01*
X6982676Y-11048043D01*
X7011248Y-11048043D01*
X7030295Y-11057567D01*
X7039819Y-11067090D01*
X7049343Y-11086138D01*
X7049343Y-11143281D01*
X7039819Y-11162329D01*
X7030295Y-11171852D01*
X7011248Y-11181376D01*
X6982676Y-11181376D01*
X7163628Y-11181376D02*
X7144581Y-11171852D01*
X7135057Y-11152805D01*
X7135057Y-10981376D01*
X7316009Y-11171852D02*
X7296962Y-11181376D01*
X7258867Y-11181376D01*
X7239819Y-11171852D01*
X7230295Y-11152805D01*
X7230295Y-11076614D01*
X7239819Y-11057567D01*
X7258867Y-11048043D01*
X7296962Y-11048043D01*
X7316009Y-11057567D01*
X7325533Y-11076614D01*
X7325533Y-11095662D01*
X7230295Y-11114710D01*
X7401724Y-11171852D02*
X7420771Y-11181376D01*
X7458867Y-11181376D01*
X7477914Y-11171852D01*
X7487438Y-11152805D01*
X7487438Y-11143281D01*
X7477914Y-11124233D01*
X7458867Y-11114710D01*
X7430295Y-11114710D01*
X7411248Y-11105186D01*
X7401724Y-11086138D01*
X7401724Y-11076614D01*
X7411248Y-11057567D01*
X7430295Y-11048043D01*
X7458867Y-11048043D01*
X7477914Y-11057567D01*
X7554105Y-11257567D02*
X7563628Y-11248043D01*
X7582676Y-11219471D01*
X7592200Y-11200424D01*
X7601724Y-11171852D01*
X7611248Y-11124233D01*
X7611248Y-11086138D01*
X7601724Y-11038519D01*
X7592200Y-11009948D01*
X7582676Y-10990900D01*
X7563628Y-10962329D01*
X7554105Y-10952805D01*
M02*
