%TF.GenerationSoftware,KiCad,Pcbnew,(6.0.8)*%
%TF.CreationDate,2022-11-05T16:03:21+08:00*%
%TF.ProjectId,pico_apple1,7069636f-5f61-4707-906c-65312e6b6963,rev?*%
%TF.SameCoordinates,Original*%
%TF.FileFunction,Drillmap*%
%TF.FilePolarity,Positive*%
%FSLAX45Y45*%
G04 Gerber Fmt 4.5, Leading zero omitted, Abs format (unit mm)*
G04 Created by KiCad (PCBNEW (6.0.8)) date 2022-11-05 16:03:21*
%MOMM*%
%LPD*%
G01*
G04 APERTURE LIST*
%ADD10C,0.100000*%
%ADD11C,0.200000*%
G04 APERTURE END LIST*
D10*
X2787200Y-9389900D02*
X2787200Y-3689900D01*
X9887200Y-9389900D02*
X2787200Y-9389900D01*
X9887200Y-3689900D02*
X9887200Y-9389900D01*
X2787200Y-3689900D02*
X9887200Y-3689900D01*
D11*
X3039819Y-9705376D02*
X3039819Y-9505376D01*
X3087438Y-9505376D01*
X3116009Y-9514900D01*
X3135057Y-9533948D01*
X3144581Y-9552995D01*
X3154105Y-9591090D01*
X3154105Y-9619662D01*
X3144581Y-9657757D01*
X3135057Y-9676805D01*
X3116009Y-9695852D01*
X3087438Y-9705376D01*
X3039819Y-9705376D01*
X3239819Y-9705376D02*
X3239819Y-9572043D01*
X3239819Y-9610138D02*
X3249343Y-9591090D01*
X3258867Y-9581567D01*
X3277914Y-9572043D01*
X3296962Y-9572043D01*
X3363628Y-9705376D02*
X3363628Y-9572043D01*
X3363628Y-9505376D02*
X3354105Y-9514900D01*
X3363628Y-9524424D01*
X3373152Y-9514900D01*
X3363628Y-9505376D01*
X3363628Y-9524424D01*
X3487438Y-9705376D02*
X3468390Y-9695852D01*
X3458867Y-9676805D01*
X3458867Y-9505376D01*
X3592200Y-9705376D02*
X3573152Y-9695852D01*
X3563628Y-9676805D01*
X3563628Y-9505376D01*
X3820771Y-9705376D02*
X3820771Y-9505376D01*
X3887438Y-9648233D01*
X3954105Y-9505376D01*
X3954105Y-9705376D01*
X4135057Y-9705376D02*
X4135057Y-9600614D01*
X4125533Y-9581567D01*
X4106486Y-9572043D01*
X4068390Y-9572043D01*
X4049343Y-9581567D01*
X4135057Y-9695852D02*
X4116009Y-9705376D01*
X4068390Y-9705376D01*
X4049343Y-9695852D01*
X4039819Y-9676805D01*
X4039819Y-9657757D01*
X4049343Y-9638710D01*
X4068390Y-9629186D01*
X4116009Y-9629186D01*
X4135057Y-9619662D01*
X4230295Y-9572043D02*
X4230295Y-9772043D01*
X4230295Y-9581567D02*
X4249343Y-9572043D01*
X4287438Y-9572043D01*
X4306486Y-9581567D01*
X4316010Y-9591090D01*
X4325533Y-9610138D01*
X4325533Y-9667281D01*
X4316010Y-9686329D01*
X4306486Y-9695852D01*
X4287438Y-9705376D01*
X4249343Y-9705376D01*
X4230295Y-9695852D01*
X4411248Y-9686329D02*
X4420771Y-9695852D01*
X4411248Y-9705376D01*
X4401724Y-9695852D01*
X4411248Y-9686329D01*
X4411248Y-9705376D01*
X4411248Y-9581567D02*
X4420771Y-9591090D01*
X4411248Y-9600614D01*
X4401724Y-9591090D01*
X4411248Y-9581567D01*
X4411248Y-9600614D01*
M02*
